/* XPM */
static char * BurningDog_Icono48x48_xpm[] = {
"48 48 353 2",
"  	c None",
". 	c #D75815",
"+ 	c #D85915",
"@ 	c #D85815",
"# 	c #D85916",
"$ 	c #DA5816",
"% 	c #D65714",
"& 	c #CF4F12",
"* 	c #CA4A10",
"= 	c #C8470F",
"- 	c #C7460F",
"; 	c #CB4910",
"> 	c #CF4E11",
", 	c #D55614",
"' 	c #D95916",
") 	c #D75915",
"! 	c #C4430E",
"~ 	c #B63308",
"{ 	c #A92503",
"] 	c #A21D00",
"^ 	c #A11C00",
"/ 	c #A82303",
"( 	c #B53208",
"_ 	c #C3410D",
": 	c #D45413",
"< 	c #D85816",
"[ 	c #CD4C11",
"} 	c #B43007",
"| 	c #A31E01",
"1 	c #B22F07",
"2 	c #CB4A10",
"3 	c #D25213",
"4 	c #B33007",
"5 	c #B12D06",
"6 	c #D05012",
"7 	c #C23F0C",
"8 	c #BE3C0B",
"9 	c #D75715",
"0 	c #D75714",
"a 	c #B02D06",
"b 	c #D55514",
"c 	c #DA5815",
"d 	c #AD2905",
"e 	c #AA2604",
"f 	c #AC2804",
"g 	c #A82403",
"h 	c #AF2C05",
"i 	c #BA370A",
"j 	c #B2452E",
"k 	c #DDAEA4",
"l 	c #E0B5AD",
"m 	c #CB7E6F",
"n 	c #A42308",
"o 	c #BC5D49",
"p 	c #CE8B7C",
"q 	c #D8A499",
"r 	c #E5C2BB",
"s 	c #F0DDDA",
"t 	c #B85641",
"u 	c #B53308",
"v 	c #D75816",
"w 	c #CA4810",
"x 	c #C06754",
"y 	c #E6C4BF",
"z 	c #BA5945",
"A 	c #BE6250",
"B 	c #F4E6E4",
"C 	c #ECD2CE",
"D 	c #A82B11",
"E 	c #E5C0BA",
"F 	c #EBCFCA",
"G 	c #D7A297",
"H 	c #E6C5BE",
"I 	c #F5E9E8",
"J 	c #C06957",
"K 	c #A11D01",
"L 	c #C5440E",
"M 	c #D65916",
"N 	c #D75814",
"O 	c #A42207",
"P 	c #BB5A46",
"Q 	c #CF8C7E",
"R 	c #D49A8E",
"S 	c #E0B8B0",
"T 	c #F0DEDB",
"U 	c #D7A397",
"V 	c #DDADA3",
"W 	c #ECD4CF",
"X 	c #AD3A22",
"Y 	c #E0B7AF",
"Z 	c #C8796A",
"` 	c #E9CAC4",
" .	c #C26A59",
"..	c #A62202",
"+.	c #C03E0C",
"@.	c #AA3017",
"#.	c #CB8373",
"$.	c #DEB3AA",
"%.	c #EACEC9",
"&.	c #DBABA1",
"*.	c #D49B8F",
"=.	c #D59C90",
"-.	c #D8A297",
";.	c #EBD1CC",
">.	c #EBD3CE",
",.	c #EED9D6",
"'.	c #E5C3BC",
").	c #D4988C",
"!.	c #CE8A7C",
"~.	c #BA5743",
"{.	c #A21E02",
"].	c #BB380A",
"^.	c #A72202",
"/.	c #B95742",
"(.	c #DFB4AB",
"_.	c #F5E7E5",
":.	c #E4BFB8",
"<.	c #CE8D7F",
"[.	c #AD3921",
"}.	c #AC3820",
"|.	c #E5C1BA",
"1.	c #BA5641",
"2.	c #A21F03",
"3.	c #E4C0B9",
"4.	c #CC8676",
"5.	c #A51F01",
"6.	c #D45514",
"7.	c #D85715",
"8.	c #C6440E",
"9.	c #B7503B",
"0.	c #F6EBE9",
"a.	c #DBACA2",
"b.	c #B64F39",
"c.	c #A6270D",
"d.	c #BE614F",
"e.	c #CB8474",
"f.	c #CA8171",
"g.	c #B24630",
"h.	c #E2BDB5",
"i.	c #DAA69C",
"j.	c #C1400C",
"k.	c #A42409",
"l.	c #D59B90",
"m.	c #F8EEEC",
"n.	c #E7C6C1",
"o.	c #D29488",
"p.	c #E6C5BF",
"q.	c #ECD4D0",
"r.	c #EED8D5",
"s.	c #F5E8E5",
"t.	c #FDF9FA",
"u.	c #F9F1EF",
"v.	c #D19386",
"w.	c #D09083",
"x.	c #E0B6AF",
"y.	c #B8543F",
"z.	c #AF2A05",
"A.	c #DA5914",
"B.	c #A42001",
"C.	c #BD5F4B",
"D.	c #EACFC9",
"E.	c #F6EAE8",
"F.	c #A22004",
"G.	c #E6C5C0",
"H.	c #D3968A",
"I.	c #AE3D25",
"J.	c #A5250A",
"K.	c #A5270C",
"L.	c #AF3E26",
"M.	c #C77767",
"N.	c #E7C8C2",
"O.	c #DCACA3",
"P.	c #C57564",
"Q.	c #D65614",
"R.	c #CE4D11",
"S.	c #D69E93",
"T.	c #F9F1F0",
"U.	c #B64E38",
"V.	c #C87C6C",
"W.	c #E1B6AF",
"X.	c #E8CAC5",
"Y.	c #ECD3CF",
"Z.	c #EED8D4",
"`.	c #CB8172",
" +	c #CA480F",
".+	c #C5430E",
"++	c #B7513C",
"@+	c #E9CBC5",
"#+	c #FAF3F3",
"$+	c #A32005",
"%+	c #AA3118",
"&+	c #C5705F",
"*+	c #CA8070",
"=+	c #BF6350",
"-+	c #A82C12",
";+	c #BC3A0B",
">+	c #D09184",
",+	c #F7ECEA",
"'+	c #F1DCD9",
")+	c #C26B59",
"!+	c #A7280E",
"~+	c #D19185",
"{+	c #D4998D",
"]+	c #D7A196",
"^+	c #DDAFA5",
"/+	c #ECD3CE",
"(+	c #F7EEEC",
"_+	c #D9A59B",
":+	c #B83509",
"<+	c #B93609",
"[+	c #E4BEB8",
"}+	c #FFFDFD",
"|+	c #E5C1BB",
"1+	c #AE3C24",
"2+	c #AB331A",
"3+	c #DBA9A0",
"4+	c #FEFBFB",
"5+	c #C97B6C",
"6+	c #B43107",
"7+	c #B63208",
"8+	c #C57161",
"9+	c #D3978B",
"0+	c #E5C3BD",
"a+	c #FBF7F7",
"b+	c #DDAFA7",
"c+	c #EACBC5",
"d+	c #DAA69B",
"e+	c #B22E06",
"f+	c #B73408",
"g+	c #CE8779",
"h+	c #A6290E",
"i+	c #B34730",
"j+	c #FDF9F8",
"k+	c #EACDC7",
"l+	c #E1B7B0",
"m+	c #E9CCC6",
"n+	c #CF8E80",
"o+	c #B22E07",
"p+	c #BA3609",
"q+	c #D69F93",
"r+	c #F5E9E6",
"s+	c #F9F2F0",
"t+	c #EED9D5",
"u+	c #CA7E6F",
"v+	c #BC5D4A",
"w+	c #A52409",
"x+	c #DFB2AA",
"y+	c #E3BEB7",
"z+	c #A32106",
"A+	c #E7C6C0",
"B+	c #BF3C0B",
"C+	c #CF8D80",
"D+	c #E0B6AE",
"E+	c #DAA89E",
"F+	c #F1E0DE",
"G+	c #F0DCD9",
"H+	c #D3988C",
"I+	c #C8450F",
"J+	c #E1B9B1",
"K+	c #E3BEB6",
"L+	c #F3E2E1",
"M+	c #F2E0DF",
"N+	c #B64F3A",
"O+	c #E9CCC7",
"P+	c #D79F95",
"Q+	c #D95815",
"R+	c #D25112",
"S+	c #CE8A7B",
"T+	c #D3968B",
"U+	c #BF6451",
"V+	c #EDD4CF",
"W+	c #CF8D7F",
"X+	c #F8EFEE",
"Y+	c #C57160",
"Z+	c #C77969",
"`+	c #D08F82",
" @	c #F2E2DF",
".@	c #E3BDB6",
"+@	c #A6280D",
"@@	c #EFDBD7",
"#@	c #CC4C11",
"$@	c #EFDAD7",
"%@	c #C26A58",
"&@	c #C57060",
"*@	c #E3BDB5",
"=@	c #F0DDD9",
"-@	c #FAF2F2",
";@	c #D9A79C",
">@	c #B44B36",
",@	c #D19487",
"'@	c #DAA69D",
")@	c #E4C1BA",
"!@	c #A52001",
"~@	c #ECD2CD",
"{@	c #B34732",
"]@	c #F1DEDA",
"^@	c #C67565",
"/@	c #AA331A",
"(@	c #A72A10",
"_@	c #C97B6B",
":@	c #FAF3F2",
"<@	c #CC4B10",
"[@	c #C87969",
"}@	c #F3E2E0",
"|@	c #E0B6AD",
"1@	c #D3978A",
"2@	c #C97A6A",
"3@	c #D8A398",
"4@	c #F6E9E7",
"5@	c #DDAFA6",
"6@	c #B1432C",
"7@	c #A92E14",
"8@	c #B54D37",
"9@	c #C67767",
"0@	c #DCAEA4",
"a@	c #E9CDC7",
"b@	c #FCFAF9",
"c@	c #E8C8C3",
"d@	c #A7280F",
"e@	c #BA5844",
"f@	c #D29588",
"g@	c #E8C9C3",
"h@	c #DCADA3",
"i@	c #CD8879",
"j@	c #A7290F",
"k@	c #D2968A",
"l@	c #D69F94",
"m@	c #D59D91",
"n@	c #D7A095",
"o@	c #C77665",
"p@	c #C3420D",
"q@	c #B12F06",
"r@	c #AD2A05",
"s@	c #A31D01",
"t@	c #D95915",
"u@	c #BB390A",
"v@	c #B83409",
"w@	c #BF3D0C",
"x@	c #A82302",
"y@	c #C03D0C",
"z@	c #D75916",
"A@	c #C4420D",
"B@	c #AE2A05",
"C@	c #C2400D",
"D@	c #D35313",
"E@	c #B83609",
"F@	c #AF2C06",
"G@	c #A72403",
"H@	c #A41F01",
"I@	c #A31F01",
"J@	c #A72302",
"K@	c #AF2B05",
"L@	c #D85814",
"                                                                                                ",
"                                      . + @ @ @ @ @ + # +                                       ",
"                              $ @ @ @ @ % & * = - ; > , @ @ @ @ '                               ",
"                          ) . @ , ! ~ { ] ^ ^ ^ ^ ^ ^ ^ / ( _ : @ @ +                           ",
"                      $ < @ [ } | ^ ^ ^ ^ ^ ^ ^ ^ ^ ^ ^ ^ ^ ^ ] 1 2 @ @ <                       ",
"                    . @ 3 4 ^ ^ ^ ^ ^ ^ ^ ^ ^ ^ ^ ^ ^ ^ ^ ^ ^ ^ ^ ^ 5 6 @ @                     ",
"                  @ @ 7 | ^ ^ ^ ^ ^ ^ ^ ^ ^ ^ ^ ^ ^ ^ ^ ^ ^ ^ ^ ^ ^ ^ ] 8 9 .                   ",
"                + 0 4 ^ ^ ^ ^ ^ ^ ^ ^ ^ ^ ^ ^ ^ ^ ^ ^ ^ ^ ^ ^ ^ ^ ^ ^ ^ ^ a b @ c               ",
"              @ : d ^ ^ ^ ^ ^ ^ ^ ^ ^ ^ ^ ^ ^ ^ ^ ^ ^ ^ ^ ^ ^ ^ ^ ^ ^ ^ ^ ^ e 3 @               ",
"            . , f ^ ^ ^ ^ ^ ^ ^ ^ ^ ^ ^ ^ ^ ^ ^ ^ ^ ^ ^ ^ ^ ^ ^ ^ ^ ^ ^ ^ ^ ^ g : @             ",
"          @ @ h ^ ^ ^ ^ ^ ^ ^ ^ ^ ^ ^ ^ ^ ^ ^ ^ ^ ^ ^ ^ ^ ^ ^ ^ ^ ^ ^ ^ ^ ^ ^ ^ f 0 @           ",
"        . @ i ^ ^ ^ ^ ^ ^ ^ ^ ^ ^ ^ ^ ^ ^ ^ ^ ^ ^ ^ ^ ^ j k l m n ^ ^ o p q r s t u @ v         ",
"        @ w ^ ^ ^ ^ ^ ^ ^ ^ ^ ^ ^ ^ ^ ^ ^ ^ ^ ^ ^ ^ ^ x y z A B C D E F G H I J K ^ L @         ",
"      M N { ^ ^ ^ ^ ^ ^ ^ ^ ^ ^ ^ ^ ^ ^ ^ ^ O P Q R S T U V W X ^ Y Z K ^ `  .^ ^ ^ .., @       ",
"      @ +.^ ^ ^ ^ ^ ^ ^ ^ ^ ^ ^ ^ ^ ^ @.#.$.T %.&.*.=.-.;.>.,.'.).!.^ ^ ~.;.{.^ ^ ^ ^ ].@       ",
"    < . ^.^ ^ ^ ^ ^ ^ ^ ^ ^ ^ ^ ^ /.(._.:.<.[.^ ^ ^ ^ ^ ^ ^ ^ }.|.1.^ 2.3.4.^ ^ ^ ^ ^ 5.6.7.    ",
"    @ 8.^ ^ ^ ^ ^ ^ ^ ^ ^ ^ ^ 9.Y 0.a.b.^ ^ ^ ^ c.d.e.f.g.^ ^ ^ ^ ^ @.h.i.K ^ ^ ^ ^ ^ ^ j.@     ",
"    @ 4 ^ ^ ^ ^ ^ ^ ^ ^ ^ k.l.m.n.P ^ ^ ^ {.o.p.q.r.s.t.u.v.^ ^ ^ w.x.y.^ ^ ^ ^ ^ ^ ^ ^ z.@ A.  ",
"  + 9 B.^ ^ ^ ^ ^ ^ ^ ^ C.D.E.v.F.^ ^ ^ ^ G.H.I.J.K.L.M.N.O.P.^ ^ ^ ^ ^ ^ ^ ^ ^ ^ ^ ^ ^ ] Q..   ",
"  @ R.^ ^ ^ ^ ^ ^ ^ n S.T.p.U.^ ^ ^ ^ ^ ^ {.V.W.X.Y.Z.` `.^ ^ ^ ^ ^ ^ ^ ^ ^ ^ ^ ^ ^ ^ ^ ^  +@   ",
"  @ .+^ ^ ^ ^ ^ ^ ++@+#+S.$+^ ^ ^ ^ ^ ^ ^ ^ ^ ^ ^ ^ ^ ^ ^ ^ ^ %+o &+*+f.P.=+-+^ ^ ^ ^ ^ ^ +.@   ",
"  @ ;+^ ^ ^ ^ 2.>+,+'+)+^ ^ ^ ^ ^ ^ ^ ^ ^ ^ ^ ^ ^ ^ ^ ^ ^ ^ !+~+{+]+^+3./+(+m._+K ^ ^ ^ ^ :+@   ",
"  @ <+^ ^ ^ X [+}+|+1+^ ^ ^ ^ ^ ^ ^ ^ ^ ^ ^ ^ ^ ^ ^ ^ ^ ^ ^ ^ ^ ^ ^ ^ ^ ^ 2+3+4+5+^ ^ ^ ^ 6+@   ",
"  @ 7+^ 8+9+0+a+b+F.^ ^ ^ ^ ^ ^ ^ ^ ^ ^ ^ ^ ^ ^ ^ ^ ^ ^ ^ ^ ^ ^ ^ ^ k.!+^ ^ K c+d+^ ^ ^ ^ e+@   ",
"  @ f+D g+h+i+j+k+^ ^ ^ ^ ^ ^ ^ ^ ^ ^ ^ ^ ^ ^ ^ ^ ^ ^ ^ ^ ^ ^ ^ ^ ^ _+l+^ ^ K m+n+^ ^ ^ ^ o+@   ",
"  @ p+^ q+r+s+t+u+^ ^ ^ ^ ^ ^ ^ ^ ^ ^ ^ ^ ^ ^ ^ v+w+^ ^ ^ ^ ^ ^ ^ ^ x+y+^ z+q A+K.^ ^ ^ ^ ( @   ",
"  @ B+^ ^ k.C+$+^ ^ ^ ^ ^ ^ ^ ^ ^ ^ ^ ^ ^ ^ ^ ^ D+E+^ ^ ^ ^ ^ ^ ^ ^ F+C s G+H+F.^ ^ ^ ^ ^ i @   ",
"  @ I+^ ^ ^ J+{.^ ^ ^ ^ ^ ^ ^ ^ ^ ^ ^ ^ ^ ^ ^ ^ K+L+y.^ ^ ^ ^ ^ ^ M.M+y+^ N+O+P+K ^ ^ ^ ^ _ @   ",
"  Q+R+^ ^ ^ S+T+^ ^ ^ ^ ^ ^ ^ ^ ^ ^ ^ ^ ^ ^ ^ U+V+W+X+Y Q Y+Z+`+H  @.@y+^ ^ +@@@Z ^ ^ ^ ^ #@@   ",
"  < @ / ^ ^ 2.|+P+k.^ ^ ^ ^ ^ ^ ^ ^ ^ ^ ^ ^ U+$@%@^ &@*@=@-@,+@@;@>@,@'@^ ^ ^ )@;@^ ^ ^ !@9 )   ",
"    @ :+^ ^ ^ +@J+~@#.K.^ ^ ^ ^ ^ ^ ^ ^ {@E+]@^@^ ^ ^ ^ K /@(@^ ^ ^ ^ ^ ^ ^ _@:@`+^ ^ ^ 4 @     ",
"    @ <@^ ^ ^ ^ K [@O+}@|@1@4.e.2@Q 3@N.4@5@6@^ ^ ^ ^ ^ ^ ^ ^ 7@8@9@Q R 0@a@b@c@d@^ ^ ^ - .     ",
"    Q+@ d ^ ^ ^ ^ ^ ^ e@f@|@g@;.;.H h@i@}.^ ^ ^ ^ ^ ^ ^ ^ ^ j@k@-.l@m@n@m@v.o@J.^ ^ ^ { @ .     ",
"      + = ^ ^ ^ ^ ^ ^ ^ ^ ^ ^ ^ ^ ^ ^ ^ ^ ^ ^ ^ ^ ^ ^ ^ ^ ^ ^ ^ ^ ^ ^ ^ ^ ^ ^ ^ ^ ^ ^ p@@       ",
"      . @ q@^ ^ ^ ^ ^ ^ ^ ^ ^ ^ ^ ^ ^ ^ ^ ^ ^ ^ ^ ^ ^ ^ ^ ^ ^ ^ ^ ^ ^ ^ ^ ^ ^ ^ ^ ^ r@9 v       ",
"        . R+5.^ ^ ^ ^ ^ ^ ^ ^ ^ ^ ^ ^ ^ ^ ^ ^ ^ ^ ^ ^ ^ ^ ^ ^ ^ ^ ^ ^ ^ ^ ^ ^ ^ ^ s@> +         ",
"        t@@ 8.^ ^ ^ ^ ^ ^ ^ ^ ^ ^ ^ ^ ^ ^ ^ ^ ^ ^ ^ ^ ^ ^ ^ ^ ^ ^ ^ ^ ^ ^ ^ ^ ^ ^ 7 @ +         ",
"          @ @ u@^ ^ ^ ^ ^ ^ ^ ^ ^ ^ ^ ^ ^ ^ ^ ^ ^ ^ ^ ^ ^ ^ ^ ^ ^ ^ ^ ^ ^ ^ ^ ^ v@@ .           ",
"            . @ :+^ ^ ^ ^ ^ ^ ^ ^ ^ ^ ^ ^ ^ ^ ^ ^ ^ ^ ^ ^ ^ ^ ^ ^ ^ ^ ^ ^ ^ ^ 6+9 @             ",
"              @ @ ].^ ^ ^ ^ ^ ^ ^ ^ ^ ^ ^ ^ ^ ^ ^ ^ ^ ^ ^ ^ ^ ^ ^ ^ ^ ^ ^ ^ f+9 .               ",
"                @ @ p@| ^ ^ ^ ^ ^ ^ ^ ^ ^ ^ ^ ^ ^ ^ ^ ^ ^ ^ ^ ^ ^ ^ ^ ^ ] w@@ +                 ",
"                  @ @ & d ^ ^ ^ ^ ^ ^ ^ ^ ^ ^ ^ ^ ^ ^ ^ ^ ^ ^ ^ ^ ^ ^ e [ @ v                   ",
"                    + @ 9 _ x@^ ^ ^ ^ ^ ^ ^ ^ ^ ^ ^ ^ ^ ^ ^ ^ ^ ^ ..y@@ @ +                     ",
"                        z@@ . A@h ] ^ ^ ^ ^ ^ ^ ^ ^ ^ ^ ^ ^ ^ B@C@% @ @                         ",
"                            . @ @ D@8.E@F@G@H@^ ^ I@J@K@v@! D@@ @ .                             ",
"                                L@. @ @ @ @ @ @ @ @ @ @ @ @ 7.+                                 ",
"                                        Q+) @ . @ + # <                                         ",
"                                                                                                "};
