/* XPM */
static char * BurningDog_Icono16x16_xpm[] = {
"16 16 100 2",
"  	c None",
". 	c #CF4E12",
"+ 	c #CE4E11",
"@ 	c #CD4F12",
"# 	c #CA4910",
"$ 	c #B53207",
"% 	c #A42001",
"& 	c #A11C00",
"* 	c #A52001",
"= 	c #B43107",
"- 	c #C94910",
"; 	c #B83609",
"> 	c #B63509",
", 	c #B53308",
"' 	c #AA3119",
") 	c #AE3A22",
"! 	c #A42409",
"~ 	c #BA5944",
"{ 	c #C35735",
"] 	c #C7460F",
"^ 	c #A72B11",
"/ 	c #C26A59",
"( 	c #CA7E6E",
"_ 	c #DEB0A7",
": 	c #DAA69B",
"< 	c #C77868",
"[ 	c #D7A094",
"} 	c #A6280E",
"| 	c #C5450F",
"1 	c #AE2B05",
"2 	c #A82E14",
"3 	c #D08D7E",
"4 	c #C87A6A",
"5 	c #B7513D",
"6 	c #C67463",
"7 	c #BF6552",
"8 	c #AE3820",
"9 	c #BE614E",
"0 	c #B54E38",
"a 	c #AD2905",
"b 	c #CC4C11",
"c 	c #A21D00",
"d 	c #BE624F",
"e 	c #D19184",
"f 	c #BE604C",
"g 	c #C46F5E",
"h 	c #C57363",
"i 	c #A82B11",
"j 	c #A5260B",
"k 	c #CD4B10",
"l 	c #CA4911",
"m 	c #B34630",
"n 	c #DBA79D",
"o 	c #C4705F",
"p 	c #B04029",
"q 	c #BA5A46",
"r 	c #CC8373",
"s 	c #C67766",
"t 	c #CB4A11",
"u 	c #CC8575",
"v 	c #B64D38",
"w 	c #D4968A",
"x 	c #C67666",
"y 	c #B95742",
"z 	c #CB4A10",
"A 	c #CD4D11",
"B 	c #C57160",
"C 	c #A11D01",
"D 	c #B54D37",
"E 	c #D3968A",
"F 	c #CF8C7D",
"G 	c #DAA79D",
"H 	c #AF3F27",
"I 	c #C57362",
"J 	c #B02D06",
"K 	c #AA3219",
"L 	c #CB8171",
"M 	c #CB8272",
"N 	c #CA806F",
"O 	c #BE6250",
"P 	c #A21F03",
"Q 	c #B2462F",
"R 	c #CE897A",
"S 	c #BB5945",
"T 	c #C8470F",
"U 	c #C9470F",
"V 	c #B93709",
"W 	c #B83509",
"X 	c #BD3B0A",
"Y 	c #A11D00",
"Z 	c #BB3B0A",
"` 	c #CC4B11",
" .	c #BC380A",
"..	c #AA2503",
"+.	c #A31E01",
"@.	c #BB380A",
"#.	c #CA4B11",
"$.	c #D24F13",
"%.	c #D04F11",
"&.	c #D24E13",
"            . + + @             ",
"        # $ % & & * = -         ",
"      ; & & & & & & & & >       ",
"    , & & & & & & ' ) ! ~ {     ",
"  ] & & & & ^ / ( _ : < [ } |   ",
"  1 & & 2 3 4 5 6 7 8 9 0 & a   ",
"b c & d e 2 & f g h i ) j & & k ",
"l m n o & & & & & & p q r s & # ",
"t u n & & & & & v & & w x y & z ",
"A c B C & & & D E 3 F G H I c b ",
"  J K r L M N O & P Q 6 R S 1   ",
"  T & & & & & & & & & & & & U   ",
"    V & & & & & & & & & & W     ",
"      X c & & & & & & Y Z       ",
"        `  ...+.+...@.#.        ",
"            $.. %.&.            "};
