<?xml version="1.0" encoding="UTF-8" standalone="no"?>
<!-- Created with Inkscape (http://www.inkscape.org/) -->
<svg
   xmlns:dc="http://purl.org/dc/elements/1.1/"
   xmlns:cc="http://web.resource.org/cc/"
   xmlns:rdf="http://www.w3.org/1999/02/22-rdf-syntax-ns#"
   xmlns:svg="http://www.w3.org/2000/svg"
   xmlns="http://www.w3.org/2000/svg"
   xmlns:xlink="http://www.w3.org/1999/xlink"
   xmlns:sodipodi="http://inkscape.sourceforge.net/DTD/sodipodi-0.dtd"
   xmlns:inkscape="http://www.inkscape.org/namespaces/inkscape"
   width="640"
   height="480"
   id="svg2"
   sodipodi:version="0.32"
   inkscape:version="0.43"
   version="1.0"
   sodipodi:docbase="/home/jag/Documents/gnewsense-art"
   sodipodi:docname="gnewsense-wallpaper.svg"
   inkscape:export-filename="/home/jag/Documents/gnewsense-art/gnewsense-wallpaper-blueblack-1600x1200.png"
   inkscape:export-xdpi="225"
   inkscape:export-ydpi="225">
  <defs
     id="defs4">
    <linearGradient
       id="linearGradient2389">
      <stop
         style="stop-color:#3665a4;stop-opacity:1;"
         offset="0"
         id="stop2391" />
      <stop
         style="stop-color:#000000;stop-opacity:1;"
         offset="1"
         id="stop2393" />
    </linearGradient>
    <linearGradient
       id="linearGradient2334">
      <stop
         style="stop-color:#fcaf3e;stop-opacity:0;"
         offset="0"
         id="stop2336" />
      <stop
         style="stop-color:#fcaf3e;stop-opacity:1;"
         offset="1"
         id="stop2338" />
    </linearGradient>
    <linearGradient
       inkscape:collect="always"
       xlink:href="#linearGradient2389"
       id="linearGradient2395"
       x1="199.38757"
       y1="22.128487"
       x2="199.38757"
       y2="208.56882"
       gradientUnits="userSpaceOnUse"
       gradientTransform="matrix(3.434025,-1.143967e-15,1.026966e-15,4.135876,-548.043,-94.80521)" />
  </defs>
  <sodipodi:namedview
     id="base"
     pagecolor="#ffffff"
     bordercolor="#666666"
     borderopacity="1.0"
     inkscape:pageopacity="0.0"
     inkscape:pageshadow="2"
     inkscape:zoom="0.87852005"
     inkscape:cx="601.32311"
     inkscape:cy="211.74492"
     inkscape:document-units="px"
     inkscape:current-layer="layer1"
     fill="#3465a4"
     inkscape:window-width="1270"
     inkscape:window-height="921"
     inkscape:window-x="1328"
     inkscape:window-y="53"
     showgrid="true"
     inkscape:grid-points="true" />
  <metadata
     id="metadata7">
    <rdf:RDF>
      <cc:Work
         rdf:about="">
        <dc:format>image/svg+xml</dc:format>
        <dc:type
           rdf:resource="http://purl.org/dc/dcmitype/StillImage" />
        <dc:title>Gnewsense Logo Markup</dc:title>
        <dc:date>30 October, 2006</dc:date>
        <dc:creator>
          <cc:Agent>
            <dc:title>Joshua Adam Ginsberg (jag@fsf.org)</dc:title>
          </cc:Agent>
        </dc:creator>
        <cc:license
           rdf:resource="http://creativecommons.org/licenses/by/2.0/" />
        <dc:contributor>
          <cc:Agent>
            <dc:title />
          </cc:Agent>
        </dc:contributor>
      </cc:Work>
      <cc:License
         rdf:about="http://creativecommons.org/licenses/by/2.0/">
        <cc:permits
           rdf:resource="http://web.resource.org/cc/Reproduction" />
        <cc:permits
           rdf:resource="http://web.resource.org/cc/Distribution" />
        <cc:requires
           rdf:resource="http://web.resource.org/cc/Notice" />
        <cc:requires
           rdf:resource="http://web.resource.org/cc/Attribution" />
        <cc:permits
           rdf:resource="http://web.resource.org/cc/DerivativeWorks" />
      </cc:License>
    </rdf:RDF>
  </metadata>
  <g
     inkscape:label="Layer 1"
     inkscape:groupmode="layer"
     id="layer1">
    <rect
       style="fill:url(#linearGradient2395);fill-opacity:1;stroke:none;stroke-width:5;stroke-linecap:round;stroke-linejoin:bevel;stroke-miterlimit:4;stroke-dasharray:none;stroke-opacity:1"
       id="rect2387"
       width="1094.3376"
       height="771.09412"
       x="-410.50961"
       y="-3.284601"
       ry="0"
       transform="matrix(0.826167,-0.563426,0.563426,0.826167,0,0)" />
    <path
       sodipodi:type="arc"
       style="fill:#3465a4;fill-opacity:1;stroke:none;stroke-width:5;stroke-linecap:round;stroke-linejoin:bevel;stroke-miterlimit:4;stroke-dasharray:none;stroke-opacity:1"
       id="path2318"
       sodipodi:cx="332.85715"
       sodipodi:cy="228.07646"
       sodipodi:rx="108.57143"
       sodipodi:ry="42.857143"
       d="M 441.42857,228.07646 A 108.57143,42.857143 0 0 1 224.34397,229.4801 L 332.85715,228.07646 z"
       sodipodi:start="0"
       sodipodi:end="3.1088353"
       transform="matrix(2.007989,-1.362796e-2,-1.131532e-2,-2.418383,-354.2556,1012.424)"
       inkscape:export-filename="/home/jag/Documents/gnewsense/gnewsense-logo-nobg-120x72.png"
       inkscape:export-xdpi="35.169998"
       inkscape:export-ydpi="35.169998" />
    <path
       style="fill:#729fcf;fill-opacity:1;fill-rule:nonzero;stroke:none;stroke-width:1px;stroke-linecap:butt;stroke-linejoin:miter;stroke-opacity:1"
       id="path2266"
       d="M 441.00127,240.45946 C 429.85902,298.75744 397.52779,350.0519 368.59661,397.65085 C 345.8445,431.86172 319.26433,467.84852 282.65455,479.99986 L 311.3361,453.64622 C 323.95481,447.39114 334.22587,438.40938 288.94679,470.46702 C 288.25776,470.95486 338.99484,413.37838 337.82933,413.63035 C 366.51857,368.17398 399.13098,317.31377 408.46709,260.42446 L 441.00127,240.45946 z " />
    <path
       style="fill:#729fcf;fill-opacity:1;fill-rule:nonzero;stroke:none;stroke-width:1px;stroke-linecap:butt;stroke-linejoin:miter;stroke-opacity:1"
       id="path2268"
       d="M 310.99833,268.29927 C 353.42093,229.64677 341.45638,266.09575 366.60114,301.10527 C 373.82112,311.15091 383.89841,316.54208 393.39942,322.66501 C 397.56398,325.13734 401.19305,328.65719 404.99114,331.83105 L 374.51762,355.14374 C 370.81603,352.07885 367.23539,348.77655 363.15834,346.43353 C 353.25292,340.20699 343.21225,333.99759 336.04438,323.29504 C 312.00441,288.00835 295.96319,265.56271 340.53875,242.45043 L 310.99833,268.29927 z " />
    <path
       style="fill:#729fcf;fill-opacity:1;fill-rule:nonzero;stroke:none;stroke-width:1px;stroke-linecap:butt;stroke-linejoin:miter;stroke-opacity:1"
       id="path2270"
       d="M 188.22447,251.88317 C 205.08476,298.7578 230.8296,339.11277 259.5745,376.26919 C 277.7144,398.84226 297.25548,419.62289 319.38927,436.25617 L 289.11098,459.5241 C 267.58928,441.71592 248.07954,420.70951 230.27454,397.68739 C 203.19082,361.63443 176.4484,317.90203 158.68408,277.73201 L 188.22447,251.88317 z " />
    <path
       d="M 461.08158,240.45956 C 449.93933,298.75754 417.6081,350.05201 388.67692,397.65098 C 365.92481,431.86187 339.34463,467.84866 302.73486,480 L 331.41642,453.64636 C 344.03511,447.39127 354.30618,438.40952 309.02709,470.46716 C 308.33806,470.955 359.07515,413.37851 357.90964,413.63048 C 386.59888,368.17411 419.21128,317.31387 428.5474,260.42455 L 461.08158,240.45956 z "
       id="path2451"
       style="fill:#729fcf;fill-opacity:1;fill-rule:nonzero;stroke:none;stroke-width:1px;stroke-linecap:butt;stroke-linejoin:miter;stroke-opacity:1" />
    <path
       d="M 331.07864,268.29937 C 373.50124,229.64685 361.53668,266.09584 386.68145,301.10537 C 393.90144,311.151 403.97873,316.54219 413.47973,322.66512 C 417.64429,325.13745 421.27337,328.6573 425.07146,331.83117 L 394.59793,355.14386 C 390.89634,352.07896 387.31571,348.77665 383.23865,346.43364 C 373.33323,340.2071 363.29256,333.9977 356.12469,323.29514 C 332.08471,288.00845 316.0435,265.5628 360.61907,242.45051 L 331.07864,268.29937 z "
       id="path2453"
       style="fill:#729fcf;fill-opacity:1;fill-rule:nonzero;stroke:none;stroke-width:1px;stroke-linecap:butt;stroke-linejoin:miter;stroke-opacity:1" />
    <path
       d="M 208.30476,251.88327 C 225.16504,298.7579 250.90988,339.11288 279.6548,376.26931 C 297.79471,398.84239 317.33578,419.62302 339.46958,436.25629 L 309.19128,459.52424 C 287.66959,441.71606 268.15983,420.70965 250.35483,397.6875 C 223.27111,361.63454 196.52868,317.90213 178.76435,277.73211 L 208.30476,251.88327 z "
       id="path2455"
       style="fill:#729fcf;fill-opacity:1;fill-rule:nonzero;stroke:none;stroke-width:1px;stroke-linecap:butt;stroke-linejoin:miter;stroke-opacity:1" />
    <path
       style="fill:#3465a4;fill-opacity:1;fill-rule:nonzero;stroke:none;stroke-width:1px;stroke-linecap:butt;stroke-linejoin:miter;stroke-opacity:1"
       id="path2206"
       d="M 264.14832,70.848798 C 238.68101,73.923895 213.43208,83.585687 189.15358,93.497084 C 211.7742,60.920931 256.36697,67.074027 309.94676,70.615033 C 331.90582,69.648896 353.10371,76.704404 374.7041,79.22353 C 350.50917,121.65697 259.39164,131.99714 196.92117,144.21698 C 154.5762,142.13284 46.41794,194.38903 139.46775,115.80908 C 239.47656,128.09755 337.2519,157.40895 437.86498,162.63503 C 500.81609,180.53444 625.39763,118.38105 518.11829,194.67673 C 410.06935,191.01772 304.23528,224.535 196.70125,232.8493 C 139.56632,233.40792 83.051858,222.84884 25.842951,222.39262 C 29.295484,216.72474 3.3197015,227.7348 8.4031276,224.28052 C 64.637739,186.06789 59.676,194.5022 123.43308,216.32157 C 179.15807,236.18968 236.34653,247.59357 294.42559,245.31626 C 296.55929,245.06648 298.693,244.81667 300.8267,244.56688 L 260.45078,280.47516 C 258.34736,280.62092 256.24391,280.7667 254.14047,280.91244 C 196.22896,281.27266 139.83012,268.27518 84.245827,248.70593 C 36.903796,233.41514 -63.854871,210.75003 66.577729,186.90813 C 122.83132,189.96118 178.77558,198.96562 235.09121,198.86891 C 343.59584,193.00869 449.76002,158.72411 558.58637,159.33252 C 522.21747,201.34703 473.11515,204.90759 399.99677,195.4423 C 298.88375,189.15595 200.50005,153.3448 99.322531,154.11844 C 144.00576,115.0508 178.69249,116.00198 234.80874,109.94868 C 270.25468,103.26953 455.29137,43.75429 333.16297,114.91452 C 312.00719,111.09075 291.09468,105.59387 269.52084,105.49567 C 224.58971,102.20004 121.32714,114.79999 228.9315,56.327331 C 254.0833,47.202551 279.64731,36.624176 305.92479,34.292985 L 264.14832,70.848798 z " />
    <path
       style="fill:#3465a4;fill-opacity:1;fill-rule:nonzero;stroke:none;stroke-width:1px;stroke-linecap:butt;stroke-linejoin:miter;stroke-opacity:1"
       id="path2208"
       d="M 395.76631,42.633835 C 421.64881,52.822698 448.34098,61.654051 474.19878,72.028625 C 491.49939,108.52248 398.139,137.63202 368.789,140.5032 C 350.91397,138.76639 334.87271,142.88001 318.22774,149.21715 C 262.64673,167.34581 323.25187,120.13316 355.85192,137.21907 C 394.01853,153.79963 431.74272,171.32231 468.64018,191.67131 L 426.13171,225.33338 C 390.28701,203.48441 353.13215,185.82751 315.1614,169.99587 C 255.60401,142.43084 325.74576,122.37005 358.52534,111.29905 C 375.25545,105.49258 391.68018,104.06191 409.18572,104.56161 C 451.69035,98.306404 501.50583,62.519001 432.01336,106.11374 C 406.07428,97.162374 380.78544,82.651716 353.98987,79.189648 L 395.76631,42.633835 z " />
    <path
       style="fill:#3465a4;fill-opacity:1;fill-rule:nonzero;stroke:none;stroke-width:1px;stroke-linecap:butt;stroke-linejoin:miter;stroke-opacity:1"
       id="path2210"
       d="M 310.01807,173.94878 C 343.25815,177.37112 377.7265,182.19892 408.79766,197.73996 C 448.55202,217.17716 439.6407,211.92153 385.63394,252.03177 C 264.02297,288.35191 320.38227,217.78504 368.12915,236.38056 C 435.44683,258.67148 505.96306,253.15462 574.93395,261.23137 C 589.53646,263.25589 604.19365,263.99576 618.87691,264.04269 L 577.5765,300.13663 C 563.25843,299.63196 549.02533,298.03983 534.84418,295.5085 C 465.75934,285.23513 395.17444,292.57872 327.50436,269.83539 C 279.70489,254.48816 403.11684,201.60408 425.31515,214.7986 C 408.6449,229.13451 396.89892,253.91486 366.58051,231.66981 C 335.52051,216.92808 301.72108,209.18422 268.30822,210.44631 L 310.01807,173.94878 z " />
    <path
       d="M 284.22855,70.848798 C 258.76122,73.923895 233.51229,83.585687 209.23379,93.497084 C 231.85441,60.920931 276.44719,67.074027 330.02697,70.615033 C 351.98603,69.648896 373.18391,76.704404 394.78432,79.22353 C 370.5894,121.65697 279.47188,131.99714 217.00137,144.21698 C 174.65641,142.13284 66.498151,194.38903 159.54795,115.80908 C 259.55677,128.09755 357.33211,157.40895 457.94519,162.63503 C 520.89631,180.53444 645.47784,118.38105 538.19851,194.67673 C 430.14956,191.01772 324.31549,224.535 216.78146,232.8493 C 159.64653,233.40792 103.13206,222.84884 45.923163,222.39262 C 49.375695,216.72474 23.399913,227.7348 28.483339,224.28052 C 84.717952,186.06789 79.756211,194.5022 143.51328,216.32157 C 199.23828,236.18968 256.42674,247.59357 314.50579,245.31626 C 316.6395,245.06648 318.77321,244.81667 320.90691,244.56688 L 280.531,280.47516 C 278.42758,280.62092 276.32414,280.7667 274.22069,280.91244 C 216.30917,281.27266 159.91033,268.27518 104.32603,248.70593 C 56.984007,233.41514 -43.774661,210.75003 86.657942,186.90813 C 142.91153,189.96118 198.8558,198.96562 255.17143,198.86891 C 363.67605,193.00869 469.84023,158.72411 578.66658,159.33252 C 542.29768,201.34703 493.19535,204.90759 420.07699,195.4423 C 318.96397,189.15595 220.58025,153.3448 119.40274,154.11844 C 164.08596,115.0508 198.7727,116.00198 254.88895,109.94868 C 290.33491,103.26953 475.37159,43.75429 353.24318,114.91452 C 332.08741,111.09075 311.1749,105.59387 289.60107,105.49567 C 244.66992,102.20004 141.40736,114.79999 249.0117,56.327331 C 274.16353,47.202551 299.72753,36.624176 326.005,34.292985 L 284.22855,70.848798 z "
       id="path2459"
       style="fill:#3465a4;fill-opacity:1;fill-rule:nonzero;stroke:none;stroke-width:1px;stroke-linecap:butt;stroke-linejoin:miter;stroke-opacity:1" />
    <path
       d="M 415.84652,42.633835 C 441.72902,52.822698 468.4212,61.654051 494.27899,72.028625 C 511.57959,108.52248 418.21921,137.63202 388.86921,140.5032 C 370.99419,138.76639 354.95293,142.88001 338.30796,149.21715 C 282.72696,167.34581 343.33209,120.13316 375.93213,137.21907 C 414.09875,153.79963 451.82293,171.32231 488.72038,191.67131 L 446.21192,225.33338 C 410.36722,203.48441 373.21236,185.82751 335.24161,169.99587 C 275.68425,142.43084 345.82597,122.37005 378.60555,111.29905 C 395.33566,105.49258 411.76039,104.06191 429.26593,104.56161 C 471.77056,98.306404 521.58605,62.519001 452.09358,106.11374 C 426.15449,97.162374 400.86565,82.651716 374.07007,79.189648 L 415.84652,42.633835 z "
       id="path2461"
       style="fill:#3465a4;fill-opacity:1;fill-rule:nonzero;stroke:none;stroke-width:1px;stroke-linecap:butt;stroke-linejoin:miter;stroke-opacity:1" />
    <path
       d="M 330.09828,173.94878 C 363.33837,177.37112 397.8067,182.19892 428.87787,197.73996 C 468.63223,217.17716 459.7209,211.92153 405.71415,252.03177 C 284.1032,288.35191 340.46248,217.78504 388.20935,236.38056 C 455.52704,258.67148 526.04327,253.15462 595.01416,261.23137 C 609.61667,263.25589 624.27386,263.99576 638.95712,264.04269 L 597.65672,300.13663 C 583.33864,299.63196 569.10555,298.03983 554.9244,295.5085 C 485.83956,285.23513 415.25464,292.57872 347.58457,269.83539 C 299.78509,254.48816 423.19705,201.60408 445.39537,214.7986 C 428.72512,229.13451 416.97913,253.91486 386.66072,231.66981 C 355.60071,216.92808 321.80129,209.18422 288.38845,210.44631 L 330.09828,173.94878 z "
       id="path2463"
       style="fill:#3465a4;fill-opacity:1;fill-rule:nonzero;stroke:none;stroke-width:1px;stroke-linecap:butt;stroke-linejoin:miter;stroke-opacity:1" />
    <g
       id="g2318"
       inkscape:label="Layer 1"
       transform="matrix(0.18982,0,0,0.18982,421.9191,335.7601)"
       style="fill:#3465a4;stroke:#000000;stroke-width:2.63407445;stroke-linecap:round;stroke-linejoin:round;stroke-miterlimit:4;stroke-dasharray:none;stroke-opacity:1">
      <g
         id="g1938"
         style="fill:#3465a4;stroke:#000000;stroke-width:2.63407445;stroke-linecap:round;stroke-linejoin:round;stroke-miterlimit:4;stroke-dasharray:none;stroke-opacity:1">
        <path
           sodipodi:nodetypes="cccszccc"
           id="path1346"
           d="M 50.858442,115.88345 C 19.6599,155.31925 53.956609,182.65585 88.430237,178.04502 C 110.58048,175.08722 113.98095,163.49437 113.61722,154.50178 C 113.26122,145.5061 98.84368,157.86974 81.883145,152.83483 C 64.922592,147.79991 56.315886,128.32117 82.299497,108.2072 C 108.2831,88.093226 131.98754,87.752348 140.04241,87.113118 C 148.53816,86.470798 153.94504,83.307376 145.87183,80.309335 C 145.87183,80.309335 87.234295,69.905181 50.858442,115.88345 z "
           style="opacity:1;fill:#3465a4;fill-opacity:1;fill-rule:nonzero;stroke:#000000;stroke-width:2.63407445;stroke-linecap:round;stroke-linejoin:round;stroke-miterlimit:4;stroke-dasharray:none;stroke-opacity:1" />
        <path
           sodipodi:nodetypes="ccccscsscccc"
           id="path1348"
           d="M 100.60556,111.60932 C 101.03434,116.18205 104.76418,122.46404 110.38537,132.22624 C 118.02862,145.49214 128.02142,168.39959 133.13012,212.34858 C 139.48994,267.04949 131.9142,294.84732 106.21941,310.42014 C 93.80374,317.94149 78.865282,322.81819 79.891724,327.49518 C 80.8653,331.93134 95.396993,332.24705 105.81265,331.56422 C 142.2579,329.18536 148.05353,299.18063 149.77485,274.12027 C 151.1885,253.53924 147.73558,223.3955 143.18781,192.46278 C 138.70026,161.93976 129.90831,127.49199 125.16965,113.10567 C 121.88621,103.14523 121.36051,100.51231 115.67618,99.616562 C 108.2811,98.457962 99.728898,102.2715 100.60556,111.60932 L 100.60556,111.60932 z "
           style="opacity:1;fill:#3465a4;fill-opacity:1;fill-rule:nonzero;stroke:#000000;stroke-width:2.63407445;stroke-linecap:round;stroke-linejoin:round;stroke-miterlimit:4;stroke-dasharray:none;stroke-opacity:1" />
        <path
           sodipodi:nodetypes="ccccccccccc"
           id="path1350"
           d="M 169.40204,176.40432 L 169.40204,44.202005 L 189.49473,44.202005 C 189.49473,44.202005 255.87182,145.84241 258.15618,147.71143 L 258.14582,44.202005 L 275.3075,44.202005 L 275.3075,176.40432 L 256.89031,176.40432 C 256.89031,176.40432 194.90152,82.659017 185.93962,70.316767 L 186.56665,176.40432 L 169.40204,176.40432 z "
           style="opacity:1;fill:#3465a4;fill-opacity:1;fill-rule:nonzero;stroke:#000000;stroke-width:2.63407445;stroke-linecap:round;stroke-linejoin:round;stroke-miterlimit:4;stroke-dasharray:none;stroke-opacity:1" />
        <path
           id="path1354"
           d="M 401.23223,83.566515 C 401.23223,83.566515 418.47026,139.44364 420.19715,149.03404 L 444.38826,83.566515 L 458.58221,83.566515 L 481.47521,147.25869 C 485.02737,138.37756 502.12444,83.566515 502.12444,83.566515 L 518.80886,83.566515 L 488.88791,176.40432 L 473.54416,176.40432 L 459.3502,132.09557 C 456.0888,121.54628 454.83328,118.83994 451.28112,109.07187 C 451.28112,109.07187 445.54098,122.31281 442.27957,132.28646 L 427.31909,176.40432 L 411.97241,176.40432 L 383.96923,83.566515 L 401.23223,83.566515 z "
           style="opacity:1;fill:#3465a4;fill-opacity:1;fill-rule:nonzero;stroke:#000000;stroke-width:2.63407445;stroke-linecap:round;stroke-linejoin:round;stroke-miterlimit:4;stroke-dasharray:none;stroke-opacity:1" />
        <path
           id="path1356"
           d="M 534.75533,155.71894 C 543.25777,160.58763 555.46652,164.29092 568.54742,164.29092 C 587.94811,164.29092 599.2847,155.32896 599.2847,141.88831 C 599.2847,129.80955 591.43676,122.60251 571.60076,115.97741 C 547.61858,108.18389 532.79184,96.88811 532.79184,78.574236 C 532.79184,58.120011 551.76022,42.924449 580.31933,42.924449 C 595.14306,42.924449 606.26198,46.042773 612.5863,49.356071 L 607.35031,63.18369 C 602.77335,60.651851 592.96341,56.951589 579.66332,56.951589 C 559.60816,56.951589 551.97938,67.663905 551.97938,76.62585 C 551.97938,88.898085 560.91716,94.936704 581.19302,101.95179 C 606.04433,110.71875 618.46922,121.23759 618.46922,140.5249 C 618.46922,160.78413 601.90117,178.51153 567.2354,178.51153 C 553.06619,178.51153 537.58645,174.61325 529.737,169.93806 L 534.7523,155.71743 L 534.75533,155.71894 z "
           style="opacity:1;fill:#3465a4;fill-opacity:1;fill-rule:nonzero;stroke:#000000;stroke-width:2.63407445;stroke-linecap:round;stroke-linejoin:round;stroke-miterlimit:4;stroke-dasharray:none;stroke-opacity:1" />
        <path
           sodipodi:nodetypes="cccccccccccc"
           id="path1358"
           d="M 742.74178,176.40432 L 742.74178,83.026128 L 763.81979,83.026128 C 763.81979,83.026128 800.78664,149.53036 800.78664,149.53036 L 800.65123,83.026128 L 816.46782,83.026128 L 816.46782,176.40432 L 797.87881,176.40432 C 797.87881,176.40432 758.81673,107.89774 758.81673,107.89774 L 758.55542,176.40579 L 742.74031,176.40579 L 742.74178,176.40432 z "
           style="opacity:1;fill:#3465a4;fill-opacity:1;fill-rule:nonzero;stroke:#000000;stroke-width:2.63407445;stroke-linecap:round;stroke-linejoin:round;stroke-miterlimit:4;stroke-dasharray:none;stroke-opacity:1" />
        <path
           id="path1360"
           d="M 841.44894,159.33075 C 846.62813,162.3998 855.44906,165.8521 863.88966,165.8521 C 875.97347,165.8521 881.72683,159.90638 881.72683,152.04141 C 881.72683,143.987 876.93236,139.57434 864.65619,134.97077 C 847.7794,128.83416 839.91443,119.81793 839.91443,108.69302 C 839.91443,93.734003 852.18619,81.457833 871.94407,81.457833 C 881.34209,81.457833 889.59179,83.951247 894.57569,87.212655 L 890.54921,99.296459 C 886.90749,97.186309 880.19377,93.926369 871.56227,93.926369 C 861.58568,93.926369 856.21559,99.681191 856.21559,106.5858 C 856.21559,114.44931 861.58568,117.90161 873.67242,122.50518 C 889.59179,128.4509 898.0324,136.50824 898.0324,150.50835 C 898.0324,167.00335 885.17913,178.513 863.50346,178.513 C 853.33892,178.513 843.94236,175.82869 837.41954,171.99165 L 841.44747,159.33222 L 841.44894,159.33075 z "
           style="opacity:1;fill:#3465a4;fill-opacity:1;fill-rule:nonzero;stroke:#000000;stroke-width:2.63407445;stroke-linecap:round;stroke-linejoin:round;stroke-miterlimit:4;stroke-dasharray:none;stroke-opacity:1" />
        <path
           style="opacity:1;fill:#3465a4;fill-opacity:1;fill-rule:nonzero;stroke:#000000;stroke-width:2.63407445;stroke-linecap:round;stroke-linejoin:round;stroke-miterlimit:4;stroke-dasharray:none;stroke-opacity:1"
           d="M 701.27653,135.03245 C 687.45245,136.65067 670.99874,138.09415 666.52292,138.42309 C 660.89733,138.83571 659.86145,136.01005 659.86145,134.41091 C 659.86145,132.81177 662.53317,125.70785 666.52292,125.70785 C 668.84013,125.70785 699.24861,127.42005 699.24861,127.42005 C 696.58485,109.21431 688.98714,100.09382 677.93565,99.888242 C 663.67856,99.620985 650.84878,113.65341 652.18065,132.74903 C 653.81797,156.225 667.71677,168.71703 684.59504,168.71703 C 696.67884,168.71703 711.44989,162.43063 712.57031,166.49675 C 713.69074,170.55992 697.78898,178.02107 683.02086,178.02107 C 654.63442,178.02107 634.41986,159.22943 634.41986,131.41714 C 634.41986,103.21867 654.05879,81.137712 681.10308,80.964437 C 707.68481,80.795566 724.63429,106.28396 722.33104,130.07059 C 722.01227,133.36268 715.10063,133.41423 701.27653,135.03245 z "
           id="path5749"
           sodipodi:nodetypes="csssccssssscsz" />
        <path
           style="opacity:1;fill:#3465a4;fill-opacity:1;fill-rule:nonzero;stroke:#000000;stroke-width:2.63407445;stroke-linecap:round;stroke-linejoin:round;stroke-miterlimit:4;stroke-dasharray:none;stroke-opacity:1"
           d="M 356.47974,135.03245 C 342.65565,136.65067 326.20195,138.09415 321.72614,138.42309 C 316.10053,138.83571 315.06468,136.01005 315.06468,134.41091 C 315.06468,132.81177 317.73638,125.70785 321.72614,125.70785 C 324.04333,125.70785 354.45182,127.42005 354.45182,127.42005 C 351.78807,109.21431 344.19035,100.09382 333.13886,99.888242 C 318.88176,99.620985 306.052,113.65341 307.38387,132.74903 C 309.02118,156.225 322.91998,168.71703 339.79824,168.71703 C 351.88205,168.71703 366.65311,162.43063 367.77352,166.49675 C 368.89394,170.55992 352.99219,178.02107 338.22408,178.02107 C 309.83763,178.02107 289.62307,159.22943 289.62307,131.41714 C 289.62307,103.21867 309.26201,81.137712 336.30629,80.964437 C 362.88802,80.795566 379.83751,106.28396 377.53425,130.07059 C 377.21548,133.36268 370.30383,133.41423 356.47974,135.03245 z "
           id="path5764"
           sodipodi:nodetypes="csssccssssscsz" />
        <path
           style="opacity:1;fill:#3465a4;fill-opacity:1;fill-rule:nonzero;stroke:#000000;stroke-width:2.63407445;stroke-linecap:round;stroke-linejoin:round;stroke-miterlimit:4;stroke-dasharray:none;stroke-opacity:1"
           d="M 977.34352,135.39629 C 963.51945,137.01452 947.06578,138.458 942.5899,138.78692 C 936.96434,139.19956 935.92844,136.3739 935.92844,134.77477 C 935.92844,133.17563 938.60012,126.07169 942.5899,126.07169 C 944.90714,126.07169 975.31559,127.7839 975.31559,127.7839 C 972.65181,109.57816 965.05412,100.45767 954.00266,100.25209 C 939.74551,99.984829 926.91575,114.01726 928.24764,133.11286 C 929.88494,156.58884 943.78374,169.08088 960.66202,169.08088 C 972.74587,169.08088 987.51692,162.79447 988.63727,166.86059 C 989.75772,170.92377 973.85594,178.38492 959.08784,178.38492 C 930.7014,178.38492 910.48683,159.59327 910.48683,131.78099 C 910.48683,103.58251 930.12581,81.501557 957.17007,81.328281 C 983.75183,81.15941 1000.7013,106.64781 998.39807,130.43443 C 998.07924,133.72653 991.16758,133.77807 977.34352,135.39629 z "
           id="path5766"
           sodipodi:nodetypes="csssccssssscsz" />
      </g>
    </g>
  </g>
</svg>
