<?xml version="1.0" encoding="UTF-8" standalone="no"?>
<!-- Created with Inkscape (http://www.inkscape.org/) -->
<svg
   xmlns:dc="http://purl.org/dc/elements/1.1/"
   xmlns:cc="http://web.resource.org/cc/"
   xmlns:rdf="http://www.w3.org/1999/02/22-rdf-syntax-ns#"
   xmlns:svg="http://www.w3.org/2000/svg"
   xmlns="http://www.w3.org/2000/svg"
   xmlns:xlink="http://www.w3.org/1999/xlink"
   xmlns:sodipodi="http://inkscape.sourceforge.net/DTD/sodipodi-0.dtd"
   xmlns:inkscape="http://www.inkscape.org/namespaces/inkscape"
   width="450"
   height="350"
   id="svg1380"
   sodipodi:version="0.32"
   inkscape:version="0.43"
   sodipodi:docbase="/home/jag/Documents/gnewsense-art"
   sodipodi:docname="gnewsense-gnome-splash.svg"
   version="1.0">
  <defs
     id="defs1382">
    <linearGradient
       id="linearGradient2404">
      <stop
         style="stop-color:#ffffff;stop-opacity:1;"
         offset="0"
         id="stop2406" />
      <stop
         style="stop-color:#3465a4;stop-opacity:1;"
         offset="1"
         id="stop2408" />
    </linearGradient>
    <linearGradient
       id="linearGradient2396">
      <stop
         style="stop-color:#729fcf;stop-opacity:1;"
         offset="0"
         id="stop2398" />
      <stop
         style="stop-color:#3465af;stop-opacity:0.94117647;"
         offset="1"
         id="stop2400" />
    </linearGradient>
    <linearGradient
       id="linearGradient2388">
      <stop
         style="stop-color:#729fcf;stop-opacity:1;"
         offset="0"
         id="stop2390" />
      <stop
         style="stop-color:#3465a4;stop-opacity:1;"
         offset="1"
         id="stop2392" />
    </linearGradient>
    <linearGradient
       id="linearGradient2377">
      <stop
         style="stop-color:#3465a4;stop-opacity:1;"
         offset="0"
         id="stop2379" />
      <stop
         style="stop-color:#3465a4;stop-opacity:0;"
         offset="1"
         id="stop2381" />
    </linearGradient>
    <linearGradient
       id="linearGradient2341">
      <stop
         style="stop-color:#ffffff;stop-opacity:1;"
         offset="0"
         id="stop2343" />
      <stop
         style="stop-color:#3465a4;stop-opacity:1;"
         offset="1"
         id="stop2345" />
    </linearGradient>
    <linearGradient
       id="linearGradient2333">
      <stop
         style="stop-color:#ffffff;stop-opacity:1;"
         offset="0"
         id="stop2335" />
      <stop
         style="stop-color:#000000;stop-opacity:0;"
         offset="1"
         id="stop2337" />
    </linearGradient>
    <linearGradient
       id="linearGradient2325">
      <stop
         style="stop-color:#729fcf;stop-opacity:1;"
         offset="0"
         id="stop2327" />
      <stop
         style="stop-color:#3465a4;stop-opacity:1;"
         offset="1"
         id="stop2329" />
    </linearGradient>
    <linearGradient
       id="linearGradient2313">
      <stop
         style="stop-color:#ffffff;stop-opacity:1;"
         offset="0"
         id="stop2315" />
      <stop
         style="stop-color:#3465a4;stop-opacity:1;"
         offset="1"
         id="stop2317" />
    </linearGradient>
    <linearGradient
       id="linearGradient2305">
      <stop
         style="stop-color:#729fcf;stop-opacity:1;"
         offset="0"
         id="stop2307" />
      <stop
         style="stop-color:#729fcf;stop-opacity:0;"
         offset="1"
         id="stop2309" />
    </linearGradient>
    <linearGradient
       id="linearGradient2297">
      <stop
         style="stop-color:#3465a4;stop-opacity:1;"
         offset="0"
         id="stop2299" />
      <stop
         style="stop-color:#729fcf;stop-opacity:0.94117647;"
         offset="1"
         id="stop2301" />
    </linearGradient>
    <linearGradient
       id="linearGradient2289">
      <stop
         style="stop-color:#000000;stop-opacity:1;"
         offset="0"
         id="stop2291" />
      <stop
         style="stop-color:#000000;stop-opacity:0;"
         offset="1"
         id="stop2293" />
    </linearGradient>
    <radialGradient
       inkscape:collect="always"
       xlink:href="#linearGradient2333"
       id="radialGradient2339"
       cx="274.28571"
       cy="503.79071"
       fx="274.28571"
       fy="503.79071"
       r="158.52483"
       gradientTransform="matrix(1,0,0,0.581286,-5.518502e-14,210.9441)"
       gradientUnits="userSpaceOnUse" />
    <radialGradient
       inkscape:collect="always"
       xlink:href="#linearGradient2341"
       id="radialGradient2347"
       cx="187.16194"
       cy="471.12442"
       fx="187.16194"
       fy="471.12442"
       r="79.730507"
       gradientUnits="userSpaceOnUse" />
    <radialGradient
       inkscape:collect="always"
       xlink:href="#linearGradient2333"
       id="radialGradient2349"
       gradientUnits="userSpaceOnUse"
       gradientTransform="matrix(1,-1.202787e-19,6.991632e-20,0.581286,-7.83425e-14,210.9441)"
       cx="274.28571"
       cy="503.79071"
       fx="274.28571"
       fy="503.79071"
       r="158.52483" />
    <radialGradient
       inkscape:collect="always"
       xlink:href="#linearGradient2333"
       id="radialGradient2351"
       gradientUnits="userSpaceOnUse"
       gradientTransform="matrix(1,0,0,0.581286,-9.080237e-14,210.9441)"
       cx="274.28571"
       cy="503.79071"
       fx="274.28571"
       fy="503.79071"
       r="158.52483" />
    <radialGradient
       inkscape:collect="always"
       xlink:href="#linearGradient2333"
       id="radialGradient2353"
       gradientUnits="userSpaceOnUse"
       gradientTransform="matrix(1,0,0,0.581286,-2.716403e-14,210.9441)"
       cx="274.28571"
       cy="503.79071"
       fx="274.28571"
       fy="503.79071"
       r="158.52483" />
    <radialGradient
       inkscape:collect="always"
       xlink:href="#linearGradient2333"
       id="radialGradient2355"
       gradientUnits="userSpaceOnUse"
       gradientTransform="matrix(1,0,0,0.581286,-2.716403e-14,210.9441)"
       cx="274.28571"
       cy="503.79071"
       fx="274.28571"
       fy="503.79071"
       r="158.52483" />
    <radialGradient
       inkscape:collect="always"
       xlink:href="#linearGradient2333"
       id="radialGradient2357"
       gradientUnits="userSpaceOnUse"
       gradientTransform="matrix(1,0,0,0.581286,-2.716403e-14,210.9441)"
       cx="274.28571"
       cy="503.79071"
       fx="274.28571"
       fy="503.79071"
       r="158.52483" />
    <radialGradient
       inkscape:collect="always"
       xlink:href="#linearGradient2333"
       id="radialGradient2359"
       gradientUnits="userSpaceOnUse"
       gradientTransform="matrix(1,0,0,0.581286,-7.659151e-14,210.9441)"
       cx="274.28571"
       cy="503.79071"
       fx="274.28571"
       fy="503.79071"
       r="158.52483" />
    <radialGradient
       inkscape:collect="always"
       xlink:href="#linearGradient2333"
       id="radialGradient2361"
       gradientUnits="userSpaceOnUse"
       gradientTransform="matrix(1,0,0,0.581286,5.151716e-14,210.9441)"
       cx="274.28571"
       cy="503.79071"
       fx="274.28571"
       fy="503.79071"
       r="158.52483" />
    <radialGradient
       inkscape:collect="always"
       xlink:href="#linearGradient2333"
       id="radialGradient2363"
       gradientUnits="userSpaceOnUse"
       gradientTransform="matrix(1,0,0,0.581286,5.151716e-14,210.9441)"
       cx="274.28571"
       cy="503.79071"
       fx="274.28571"
       fy="503.79071"
       r="158.52483" />
    <radialGradient
       inkscape:collect="always"
       xlink:href="#linearGradient2333"
       id="radialGradient2365"
       gradientUnits="userSpaceOnUse"
       gradientTransform="matrix(1,0,0,0.581286,5.151716e-14,210.9441)"
       cx="274.28571"
       cy="503.79071"
       fx="274.28571"
       fy="503.79071"
       r="158.52483" />
    <radialGradient
       inkscape:collect="always"
       xlink:href="#linearGradient2333"
       id="radialGradient2367"
       gradientUnits="userSpaceOnUse"
       gradientTransform="matrix(1,0,0,0.581286,5.151716e-14,210.9441)"
       cx="274.28571"
       cy="503.79071"
       fx="274.28571"
       fy="503.79071"
       r="158.52483" />
    <radialGradient
       inkscape:collect="always"
       xlink:href="#linearGradient2333"
       id="radialGradient2369"
       gradientUnits="userSpaceOnUse"
       gradientTransform="matrix(1,0,0,0.581286,5.151716e-14,210.9441)"
       cx="274.28571"
       cy="503.79071"
       fx="274.28571"
       fy="503.79071"
       r="158.52483" />
    <radialGradient
       inkscape:collect="always"
       xlink:href="#linearGradient2333"
       id="radialGradient2371"
       gradientUnits="userSpaceOnUse"
       gradientTransform="matrix(1,0,0,0.581286,5.151716e-14,210.9441)"
       cx="274.28571"
       cy="503.79071"
       fx="274.28571"
       fy="503.79071"
       r="158.52483" />
    <linearGradient
       inkscape:collect="always"
       xlink:href="#linearGradient2388"
       id="linearGradient2394"
       x1="104.93143"
       y1="471.12442"
       x2="269.39246"
       y2="471.12442"
       gradientUnits="userSpaceOnUse" />
    <linearGradient
       inkscape:collect="always"
       xlink:href="#linearGradient2396"
       id="linearGradient2402"
       x1="141.54483"
       y1="564.58496"
       x2="574.82532"
       y2="564.58496"
       gradientUnits="userSpaceOnUse"
       gradientTransform="matrix(0.901043,0,0,0.886062,-79.33189,-288.2021)" />
    <radialGradient
       inkscape:collect="always"
       xlink:href="#linearGradient2404"
       id="radialGradient2410"
       cx="358.18506"
       cy="564.58496"
       fx="358.18506"
       fy="564.58496"
       r="216.64023"
       gradientTransform="matrix(0.901043,0,0,0.527451,-79.33189,-85.73603)"
       gradientUnits="userSpaceOnUse" />
  </defs>
  <sodipodi:namedview
     id="base"
     pagecolor="#ffffff"
     bordercolor="#666666"
     borderopacity="1.0"
     inkscape:pageopacity="0.0"
     inkscape:pageshadow="2"
     inkscape:zoom="1.4677717"
     inkscape:cx="407.43496"
     inkscape:cy="123.59837"
     inkscape:document-units="px"
     inkscape:current-layer="layer1"
     fill="#3465a4"
     inkscape:window-width="1280"
     inkscape:window-height="946"
     inkscape:window-x="0"
     inkscape:window-y="0" />
  <metadata
     id="metadata1385">
    <rdf:RDF>
      <cc:Work
         rdf:about="">
        <dc:format>image/svg+xml</dc:format>
        <dc:type
           rdf:resource="http://purl.org/dc/dcmitype/StillImage" />
        <dc:title>Gnewsense Splash Screen</dc:title>
        <dc:date>30 October, 2006</dc:date>
        <dc:creator>
          <cc:Agent>
            <dc:title>Joshua Adam Ginsberg (jag@fsf.org)</dc:title>
          </cc:Agent>
        </dc:creator>
        <cc:license
           rdf:resource="http://creativecommons.org/licenses/by/2.0/" />
      </cc:Work>
      <cc:License
         rdf:about="http://creativecommons.org/licenses/by/2.0/">
        <cc:permits
           rdf:resource="http://web.resource.org/cc/Reproduction" />
        <cc:permits
           rdf:resource="http://web.resource.org/cc/Distribution" />
        <cc:requires
           rdf:resource="http://web.resource.org/cc/Notice" />
        <cc:requires
           rdf:resource="http://web.resource.org/cc/Attribution" />
        <cc:permits
           rdf:resource="http://web.resource.org/cc/DerivativeWorks" />
      </cc:License>
    </rdf:RDF>
  </metadata>
  <g
     inkscape:label="Layer 1"
     inkscape:groupmode="layer"
     id="layer1">
    <rect
       style="fill:url(#radialGradient2410);fill-opacity:1;stroke:url(#linearGradient2402);stroke-width:4.46760511;stroke-linecap:round;stroke-linejoin:round;stroke-miterlimit:4;stroke-dasharray:none;stroke-opacity:1"
       id="rect2373"
       width="385.89902"
       height="224.10416"
       x="50.458672"
       y="100.00307"
       inkscape:export-filename="/home/jag/Documents/gnewsense-art/gnewsense-gnome-splash-600x428.png"
       inkscape:export-xdpi="126.46"
       inkscape:export-ydpi="126.46" />
    <path
       sodipodi:type="arc"
       style="fill:url(#radialGradient2347);fill-opacity:1;stroke:url(#linearGradient2394);stroke-width:5;stroke-linecap:round;stroke-linejoin:bevel;stroke-miterlimit:4;stroke-dasharray:none;stroke-opacity:1"
       id="path1414"
       sodipodi:cx="187.16194"
       sodipodi:cy="471.12442"
       sodipodi:rx="79.730507"
       sodipodi:ry="79.730507"
       d="M 266.89245 471.12442 A 79.730507 79.730507 0 1 1  107.43143,471.12442 A 79.730507 79.730507 0 1 1  266.89245 471.12442 z"
       inkscape:export-filename="/home/jag/Documents/gnewsense-art/gnewsense-gnome-splash-600x428.png"
       inkscape:export-xdpi="126.46"
       inkscape:export-ydpi="126.46"
       transform="translate(-93.33877,-367.2233)" />
    <g
       id="g1400"
       transform="matrix(0.441893,0,0,0.441893,-28.2501,-120.1397)"
       style="stroke:url(#radialGradient2339);stroke-width:2.81063509;stroke-miterlimit:4;stroke-dasharray:none"
       inkscape:export-filename="/home/jag/Documents/gnewsense-art/gnewsense-gnome-splash-600x428.png"
       inkscape:export-xdpi="126.46"
       inkscape:export-ydpi="126.46">
      <path
         inkscape:export-ydpi="35.169998"
         inkscape:export-xdpi="35.169998"
         inkscape:export-filename="/home/jag/Documents/gnewsense-nobg-124x72.png"
         transform="matrix(0.999984,-5.635062e-3,-5.635062e-3,-0.999984,-61.81204,816.0928)"
         sodipodi:end="3.1088353"
         sodipodi:start="0"
         d="M 441.42857,228.07646 A 108.57143,42.857143 0 0 1 224.34397,229.4801 L 332.85715,228.07646 z"
         sodipodi:ry="42.857143"
         sodipodi:rx="108.57143"
         sodipodi:cy="228.07646"
         sodipodi:cx="332.85715"
         id="path2318"
         style="fill:#fcaf3e;fill-opacity:1;stroke:url(#radialGradient2349);stroke-width:2.81063557;stroke-linecap:round;stroke-linejoin:bevel;stroke-miterlimit:4;stroke-dasharray:none;stroke-opacity:1"
         sodipodi:type="arc" />
      <g
         inkscape:export-ydpi="35.169998"
         inkscape:export-xdpi="35.169998"
         inkscape:export-filename="/home/jag/Documents/gnewsense-nobg-124x72.png"
         transform="translate(80.32995,374.094)"
         id="g2449"
         style="stroke:url(#radialGradient2351);stroke-width:2.81063509;stroke-miterlimit:4;stroke-dasharray:none">
        <path
           d="M 263.89809,122.79678 C 258.34922,146.90257 242.24818,168.11246 227.84037,187.79428 C 216.50976,201.94023 203.27276,216.82051 185.04099,221.845 L 199.32448,210.94796 C 205.60863,208.36153 210.72365,204.64764 188.17454,217.90324 C 187.8314,218.10496 213.09861,194.2975 212.51818,194.40169 C 226.8055,175.60581 243.04657,154.57548 247.69598,131.05216 L 263.89809,122.79678 z "
           id="path2451"
           style="fill:#8f5902;fill-opacity:1;fill-rule:nonzero;stroke:url(#radialGradient2353);stroke-width:2.81063509;stroke-linecap:butt;stroke-linejoin:miter;stroke-miterlimit:4;stroke-dasharray:none;stroke-opacity:1" />
        <path
           d="M 199.15627,134.30834 C 220.28284,118.32581 214.32446,133.3972 226.84662,147.87338 C 230.44219,152.02718 235.46071,154.25639 240.19224,156.78818 C 242.2662,157.81047 244.07349,159.2659 245.96495,160.57827 L 230.78905,170.2179 C 228.94565,168.95059 227.16248,167.58511 225.1321,166.61629 C 220.19917,164.04166 215.19889,161.47412 211.62927,157.04869 C 199.6573,142.4579 191.66873,133.17679 213.86748,123.62003 L 199.15627,134.30834 z "
           id="path2453"
           style="fill:#8f5902;fill-opacity:1;fill-rule:nonzero;stroke:url(#radialGradient2355);stroke-width:2.81063509;stroke-linecap:butt;stroke-linejoin:miter;stroke-miterlimit:4;stroke-dasharray:none;stroke-opacity:1" />
        <path
           d="M 138.01455,127.5204 C 146.41102,146.90272 159.23202,163.58921 173.54706,178.95312 C 182.58078,188.28692 192.31229,196.87956 203.33498,203.7573 L 188.25631,213.37842 C 177.53844,206.01487 167.82254,197.32887 158.9556,187.80939 C 145.46783,172.90175 132.15003,154.81872 123.30335,138.20871 L 138.01455,127.5204 z "
           id="path2455"
           style="fill:#8f5902;fill-opacity:1;fill-rule:nonzero;stroke:url(#radialGradient2357);stroke-width:2.81063509;stroke-linecap:butt;stroke-linejoin:miter;stroke-miterlimit:4;stroke-dasharray:none;stroke-opacity:1" />
      </g>
      <g
         transform="translate(70.32992,374.094)"
         inkscape:export-ydpi="35.169998"
         inkscape:export-xdpi="35.169998"
         inkscape:export-filename="/home/jag/Documents/gnewsense-nobg-124x72.png"
         id="g1367"
         style="stroke:url(#radialGradient2359);stroke-width:2.81063509;stroke-miterlimit:4;stroke-dasharray:none">
        <path
           style="fill:#727e0a;fill-opacity:1;fill-rule:nonzero;stroke:url(#radialGradient2361);stroke-width:2.81063509;stroke-linecap:butt;stroke-linejoin:miter;stroke-miterlimit:4;stroke-dasharray:none;stroke-opacity:1"
           id="path2206"
           d="M 175.82483,52.66398 C 163.14204,53.93551 150.568,57.93059 138.47724,62.02888 C 149.74237,48.55888 171.94969,51.10314 198.63257,52.56732 C 209.56824,52.16783 220.12484,55.08523 230.8819,56.12687 C 218.83276,73.67279 173.45599,77.94837 142.34552,83.00119 C 121.25761,82.13941 67.3945,103.74696 113.73356,71.25473 C 163.53822,76.33592 212.2306,88.45597 262.33619,90.61691 C 293.68602,98.01819 355.72796,72.31822 302.30256,103.86592 C 248.49389,102.35295 195.78823,116.2121 142.236,119.65 C 113.78265,119.88098 85.63829,115.51488 57.1481,115.32624 C 58.86747,112.98261 45.93146,117.53519 48.46302,116.10687 C 76.46801,100.30623 73.99705,103.79376 105.74825,112.8159 C 133.49945,121.03122 161.97946,125.74664 190.90298,124.805 C 191.96557,124.70171 193.02816,124.59842 194.09075,124.49513 L 173.98344,139.34294 C 172.93593,139.40321 171.88841,139.46349 170.84089,139.52376 C 142.0008,139.6727 113.91402,134.29834 86.23289,126.2066 C 62.65643,119.88397 12.47834,110.51211 77.43413,100.65366 C 105.44857,101.91608 133.30897,105.63934 161.35431,105.59936 C 215.3899,103.1762 268.25995,88.99978 322.45577,89.25135 C 304.34396,106.62404 279.89087,108.09631 243.47772,104.18248 C 193.12316,101.58312 144.12781,86.77547 93.74113,87.09537 C 115.9935,70.94118 133.26759,71.33449 161.21364,68.8315 C 178.86581,66.06971 271.01458,41.4606 210.1943,70.88483 C 199.65867,69.30373 189.24418,67.03081 178.50036,66.99021 C 156.12453,65.62749 104.69949,70.83748 158.28675,46.65946 C 170.81242,42.88643 183.54336,38.51235 196.62961,37.54842 L 175.82483,52.66398 z " />
        <path
           style="fill:#727e0a;fill-opacity:1;fill-rule:nonzero;stroke:url(#radialGradient2363);stroke-width:2.81063509;stroke-linecap:butt;stroke-linejoin:miter;stroke-miterlimit:4;stroke-dasharray:none;stroke-opacity:1"
           id="path2208"
           d="M 241.37094,40.9973 C 254.26049,45.21032 267.55327,48.86202 280.43052,53.15183 C 289.04627,68.24177 242.55254,80.27835 227.93616,81.46557 C 219.03435,80.74741 211.04576,82.44836 202.75652,85.06872 C 175.07703,92.56479 205.25855,73.0427 221.49346,80.1076 C 240.50054,86.96354 259.28729,94.20904 277.66232,102.6232 L 256.49299,116.54222 C 238.64223,107.50783 220.13901,100.20683 201.22947,93.66057 C 171.56974,82.26263 206.50051,73.96764 222.82483,69.38986 C 231.15647,66.98893 239.33603,66.39736 248.05384,66.60398 C 269.22126,64.0175 294.02951,49.21967 259.42207,67.24578 C 246.50433,63.54445 233.91042,57.5444 220.56615,56.11286 L 241.37094,40.9973 z " />
        <path
           style="fill:#727e0a;fill-opacity:1;fill-rule:nonzero;stroke:url(#radialGradient2365);stroke-width:2.81063509;stroke-linecap:butt;stroke-linejoin:miter;stroke-miterlimit:4;stroke-dasharray:none;stroke-opacity:1"
           id="path2210"
           d="M 198.66808,95.29507 C 215.22173,96.71018 232.38706,98.70644 247.86058,105.13254 C 267.65836,113.16969 263.2205,110.99652 236.32499,127.58181 C 175.7624,142.59992 203.82948,113.42104 227.60755,121.11015 C 261.13194,130.32728 296.24922,128.0461 330.59691,131.38578 C 337.869,132.2229 345.16832,132.52883 352.48063,132.54824 L 331.91291,147.47282 C 324.78247,147.26414 317.69435,146.6058 310.6321,145.55912 C 276.22766,141.31116 241.07618,144.34767 207.3763,134.94347 C 183.57203,128.59751 245.03152,106.73033 256.08634,112.18617 C 247.78451,118.11396 241.93498,128.36045 226.83633,119.16229 C 211.36836,113.06669 194.53615,109.86466 177.89647,110.38652 L 198.66808,95.29507 z " />
        <path
           d="M 185.82483,52.66398 C 173.14204,53.93551 160.568,57.93059 148.47724,62.02888 C 159.74237,48.55888 181.94969,51.10314 208.63257,52.56732 C 219.56824,52.16783 230.12484,55.08523 240.8819,56.12687 C 228.83276,73.67279 183.45599,77.94837 152.34552,83.00119 C 131.25761,82.13941 77.3945,103.74696 123.73356,71.25473 C 173.53822,76.33592 222.2306,88.45597 272.33619,90.61691 C 303.68602,98.01819 365.72796,72.31822 312.30256,103.86592 C 258.49389,102.35295 205.78823,116.2121 152.236,119.65 C 123.78265,119.88098 95.63829,115.51488 67.1481,115.32624 C 68.86747,112.98261 55.93146,117.53519 58.46302,116.10687 C 86.46801,100.30623 83.99705,103.79376 115.74825,112.8159 C 143.49945,121.03122 171.97946,125.74664 200.90298,124.805 C 201.96557,124.70171 203.02816,124.59842 204.09075,124.49513 L 183.98344,139.34294 C 182.93593,139.40321 181.88841,139.46349 180.84089,139.52376 C 152.0008,139.6727 123.91402,134.29834 96.23289,126.2066 C 72.65643,119.88397 22.47834,110.51211 87.43413,100.65366 C 115.44857,101.91608 143.30897,105.63934 171.35431,105.59936 C 225.3899,103.1762 278.25995,88.99978 332.45577,89.25135 C 314.34396,106.62404 289.89087,108.09631 253.47772,104.18248 C 203.12316,101.58312 154.12781,86.77547 103.74113,87.09537 C 125.9935,70.94118 143.26759,71.33449 171.21364,68.8315 C 188.86581,66.06971 281.01458,41.4606 220.1943,70.88483 C 209.65867,69.30373 199.24418,67.03081 188.50036,66.99021 C 166.12453,65.62749 114.69949,70.83748 168.28675,46.65946 C 180.81242,42.88643 193.54336,38.51235 206.62961,37.54842 L 185.82483,52.66398 z "
           id="path2459"
           style="fill:#727e0a;fill-opacity:1;fill-rule:nonzero;stroke:url(#radialGradient2367);stroke-width:2.81063509;stroke-linecap:butt;stroke-linejoin:miter;stroke-miterlimit:4;stroke-dasharray:none;stroke-opacity:1" />
        <path
           d="M 251.37094,40.9973 C 264.26049,45.21032 277.55327,48.86202 290.43052,53.15183 C 299.04627,68.24177 252.55254,80.27835 237.93616,81.46557 C 229.03435,80.74741 221.04576,82.44836 212.75652,85.06872 C 185.07703,92.56479 215.25855,73.0427 231.49346,80.1076 C 250.50054,86.96354 269.28729,94.20904 287.66232,102.6232 L 266.49299,116.54222 C 248.64223,107.50783 230.13901,100.20683 211.22947,93.66057 C 181.56974,82.26263 216.50051,73.96764 232.82483,69.38986 C 241.15647,66.98893 249.33603,66.39736 258.05384,66.60398 C 279.22126,64.0175 304.02951,49.21967 269.42207,67.24578 C 256.50433,63.54445 243.91042,57.5444 230.56615,56.11286 L 251.37094,40.9973 z "
           id="path2461"
           style="fill:#727e0a;fill-opacity:1;fill-rule:nonzero;stroke:url(#radialGradient2369);stroke-width:2.81063509;stroke-linecap:butt;stroke-linejoin:miter;stroke-miterlimit:4;stroke-dasharray:none;stroke-opacity:1" />
        <path
           d="M 208.66808,95.29507 C 225.22173,96.71018 242.38706,98.70644 257.86058,105.13254 C 277.65836,113.16969 273.2205,110.99652 246.32499,127.58181 C 185.7624,142.59992 213.82948,113.42104 237.60755,121.11015 C 271.13194,130.32728 306.24922,128.0461 340.59691,131.38578 C 347.869,132.2229 355.16832,132.52883 362.48063,132.54824 L 341.91291,147.47282 C 334.78247,147.26414 327.69435,146.6058 320.6321,145.55912 C 286.22766,141.31116 251.07618,144.34767 217.3763,134.94347 C 193.57203,128.59751 255.03152,106.73033 266.08634,112.18617 C 257.78451,118.11396 251.93498,128.36045 236.83633,119.16229 C 221.36836,113.06669 204.53615,109.86466 187.89647,110.38652 L 208.66808,95.29507 z "
           id="path2463"
           style="fill:#727e0a;fill-opacity:1;fill-rule:nonzero;stroke:url(#radialGradient2371);stroke-width:2.81063509;stroke-linecap:butt;stroke-linejoin:miter;stroke-miterlimit:4;stroke-dasharray:none;stroke-opacity:1" />
      </g>
    </g>
    <g
       id="g2477"
       inkscape:label="Layer 1"
       transform="matrix(0.299667,0,0,0.299667,88.36803,174.2094)"
       inkscape:export-filename="/home/jag/Documents/gnewsense-art/gnewsense-gnome-splash-600x428.png"
       inkscape:export-xdpi="126.46"
       inkscape:export-ydpi="126.46">
      <g
         id="g1938">
        <path
           sodipodi:nodetypes="cccszccc"
           id="path1346"
           d="M 50.858442,115.88345 C 19.6599,155.31925 53.956609,182.65585 88.430237,178.04502 C 110.58048,175.08722 113.98095,163.49437 113.61722,154.50178 C 113.26122,145.5061 98.84368,157.86974 81.883145,152.83483 C 64.922592,147.79991 56.315886,128.32117 82.299497,108.2072 C 108.2831,88.093226 131.98754,87.752348 140.04241,87.113118 C 148.53816,86.470798 153.94504,83.307376 145.87183,80.309335 C 145.87183,80.309335 87.234295,69.905181 50.858442,115.88345 z "
           style="opacity:1;fill:#000000;fill-opacity:1;fill-rule:nonzero;stroke:none;stroke-miterlimit:4" />
        <path
           sodipodi:nodetypes="ccccscsscccc"
           id="path1348"
           d="M 100.60556,111.60932 C 101.03434,116.18205 104.76418,122.46404 110.38537,132.22624 C 118.02862,145.49214 128.02142,168.39959 133.13012,212.34858 C 139.48994,267.04949 131.9142,294.84732 106.21941,310.42014 C 93.80374,317.94149 78.865282,322.81819 79.891724,327.49518 C 80.8653,331.93134 95.396993,332.24705 105.81265,331.56422 C 142.2579,329.18536 148.05353,299.18063 149.77485,274.12027 C 151.1885,253.53924 147.73558,223.3955 143.18781,192.46278 C 138.70026,161.93976 129.90831,127.49199 125.16965,113.10567 C 121.88621,103.14523 121.36051,100.51231 115.67618,99.616562 C 108.2811,98.457962 99.728898,102.2715 100.60556,111.60932 L 100.60556,111.60932 z "
           style="opacity:1;fill:#000000;fill-opacity:1;fill-rule:nonzero;stroke:none;stroke-miterlimit:4" />
        <path
           sodipodi:nodetypes="ccccccccccc"
           id="path1350"
           d="M 169.40204,176.40432 L 169.40204,44.202005 L 189.49473,44.202005 C 189.49473,44.202005 255.87182,145.84241 258.15618,147.71143 L 258.14582,44.202005 L 275.3075,44.202005 L 275.3075,176.40432 L 256.89031,176.40432 C 256.89031,176.40432 194.90152,82.659017 185.93962,70.316767 L 186.56665,176.40432 L 169.40204,176.40432 z "
           style="opacity:1;fill:#000000;fill-opacity:1;fill-rule:nonzero;stroke:none;stroke-miterlimit:4" />
        <path
           id="path1354"
           d="M 401.23223,83.566515 C 401.23223,83.566515 418.47026,139.44364 420.19715,149.03404 L 444.38826,83.566515 L 458.58221,83.566515 L 481.47521,147.25869 C 485.02737,138.37756 502.12444,83.566515 502.12444,83.566515 L 518.80886,83.566515 L 488.88791,176.40432 L 473.54416,176.40432 L 459.3502,132.09557 C 456.0888,121.54628 454.83328,118.83994 451.28112,109.07187 C 451.28112,109.07187 445.54098,122.31281 442.27957,132.28646 L 427.31909,176.40432 L 411.97241,176.40432 L 383.96923,83.566515 L 401.23223,83.566515 z "
           style="opacity:1;fill:#000000;fill-opacity:1;fill-rule:nonzero;stroke:none;stroke-miterlimit:4" />
        <path
           id="path1356"
           d="M 534.75533,155.71894 C 543.25777,160.58763 555.46652,164.29092 568.54742,164.29092 C 587.94811,164.29092 599.2847,155.32896 599.2847,141.88831 C 599.2847,129.80955 591.43676,122.60251 571.60076,115.97741 C 547.61858,108.18389 532.79184,96.88811 532.79184,78.574236 C 532.79184,58.120011 551.76022,42.924449 580.31933,42.924449 C 595.14306,42.924449 606.26198,46.042773 612.5863,49.356071 L 607.35031,63.18369 C 602.77335,60.651851 592.96341,56.951589 579.66332,56.951589 C 559.60816,56.951589 551.97938,67.663905 551.97938,76.62585 C 551.97938,88.898085 560.91716,94.936704 581.19302,101.95179 C 606.04433,110.71875 618.46922,121.23759 618.46922,140.5249 C 618.46922,160.78413 601.90117,178.51153 567.2354,178.51153 C 553.06619,178.51153 537.58645,174.61325 529.737,169.93806 L 534.7523,155.71743 L 534.75533,155.71894 z "
           style="opacity:1;fill:#000000;fill-opacity:1;fill-rule:nonzero;stroke:none;stroke-miterlimit:4" />
        <path
           sodipodi:nodetypes="cccccccccccc"
           id="path1358"
           d="M 742.74178,176.40432 L 742.74178,83.026128 L 763.81979,83.026128 C 763.81979,83.026128 800.78664,149.53036 800.78664,149.53036 L 800.65123,83.026128 L 816.46782,83.026128 L 816.46782,176.40432 L 797.87881,176.40432 C 797.87881,176.40432 758.81673,107.89774 758.81673,107.89774 L 758.55542,176.40579 L 742.74031,176.40579 L 742.74178,176.40432 z "
           style="opacity:1;fill:#000000;fill-opacity:1;fill-rule:nonzero;stroke:none;stroke-miterlimit:4" />
        <path
           id="path1360"
           d="M 841.44894,159.33075 C 846.62813,162.3998 855.44906,165.8521 863.88966,165.8521 C 875.97347,165.8521 881.72683,159.90638 881.72683,152.04141 C 881.72683,143.987 876.93236,139.57434 864.65619,134.97077 C 847.7794,128.83416 839.91443,119.81793 839.91443,108.69302 C 839.91443,93.734003 852.18619,81.457833 871.94407,81.457833 C 881.34209,81.457833 889.59179,83.951247 894.57569,87.212655 L 890.54921,99.296459 C 886.90749,97.186309 880.19377,93.926369 871.56227,93.926369 C 861.58568,93.926369 856.21559,99.681191 856.21559,106.5858 C 856.21559,114.44931 861.58568,117.90161 873.67242,122.50518 C 889.59179,128.4509 898.0324,136.50824 898.0324,150.50835 C 898.0324,167.00335 885.17913,178.513 863.50346,178.513 C 853.33892,178.513 843.94236,175.82869 837.41954,171.99165 L 841.44747,159.33222 L 841.44894,159.33075 z "
           style="opacity:1;fill:#000000;fill-opacity:1;fill-rule:nonzero;stroke:none;stroke-miterlimit:4" />
        <path
           style="opacity:1;fill:#000000;fill-opacity:1;fill-rule:nonzero;stroke:none;stroke-miterlimit:4"
           d="M 701.27653,135.03245 C 687.45245,136.65067 670.99874,138.09415 666.52292,138.42309 C 660.89733,138.83571 659.86145,136.01005 659.86145,134.41091 C 659.86145,132.81177 662.53317,125.70785 666.52292,125.70785 C 668.84013,125.70785 699.24861,127.42005 699.24861,127.42005 C 696.58485,109.21431 688.98714,100.09382 677.93565,99.888242 C 663.67856,99.620985 650.84878,113.65341 652.18065,132.74903 C 653.81797,156.225 667.71677,168.71703 684.59504,168.71703 C 696.67884,168.71703 711.44989,162.43063 712.57031,166.49675 C 713.69074,170.55992 697.78898,178.02107 683.02086,178.02107 C 654.63442,178.02107 634.41986,159.22943 634.41986,131.41714 C 634.41986,103.21867 654.05879,81.137712 681.10308,80.964437 C 707.68481,80.795566 724.63429,106.28396 722.33104,130.07059 C 722.01227,133.36268 715.10063,133.41423 701.27653,135.03245 z "
           id="path5749"
           sodipodi:nodetypes="csssccssssscsz" />
        <path
           style="opacity:1;fill:#000000;fill-opacity:1;fill-rule:nonzero;stroke:none;stroke-miterlimit:4"
           d="M 356.47974,135.03245 C 342.65565,136.65067 326.20195,138.09415 321.72614,138.42309 C 316.10053,138.83571 315.06468,136.01005 315.06468,134.41091 C 315.06468,132.81177 317.73638,125.70785 321.72614,125.70785 C 324.04333,125.70785 354.45182,127.42005 354.45182,127.42005 C 351.78807,109.21431 344.19035,100.09382 333.13886,99.888242 C 318.88176,99.620985 306.052,113.65341 307.38387,132.74903 C 309.02118,156.225 322.91998,168.71703 339.79824,168.71703 C 351.88205,168.71703 366.65311,162.43063 367.77352,166.49675 C 368.89394,170.55992 352.99219,178.02107 338.22408,178.02107 C 309.83763,178.02107 289.62307,159.22943 289.62307,131.41714 C 289.62307,103.21867 309.26201,81.137712 336.30629,80.964437 C 362.88802,80.795566 379.83751,106.28396 377.53425,130.07059 C 377.21548,133.36268 370.30383,133.41423 356.47974,135.03245 z "
           id="path5764"
           sodipodi:nodetypes="csssccssssscsz" />
        <path
           style="opacity:1;fill:#000000;fill-opacity:1;fill-rule:nonzero;stroke:none;stroke-miterlimit:4"
           d="M 977.34352,135.39629 C 963.51945,137.01452 947.06578,138.458 942.5899,138.78692 C 936.96434,139.19956 935.92844,136.3739 935.92844,134.77477 C 935.92844,133.17563 938.60012,126.07169 942.5899,126.07169 C 944.90714,126.07169 975.31559,127.7839 975.31559,127.7839 C 972.65181,109.57816 965.05412,100.45767 954.00266,100.25209 C 939.74551,99.984829 926.91575,114.01726 928.24764,133.11286 C 929.88494,156.58884 943.78374,169.08088 960.66202,169.08088 C 972.74587,169.08088 987.51692,162.79447 988.63727,166.86059 C 989.75772,170.92377 973.85594,178.38492 959.08784,178.38492 C 930.7014,178.38492 910.48683,159.59327 910.48683,131.78099 C 910.48683,103.58251 930.12581,81.501557 957.17007,81.328281 C 983.75183,81.15941 1000.7013,106.64781 998.39807,130.43443 C 998.07924,133.72653 991.16758,133.77807 977.34352,135.39629 z "
           id="path5766"
           sodipodi:nodetypes="csssccssssscsz" />
      </g>
    </g>
    <flowRoot
       xml:space="preserve"
       id="flowRoot2490"
       transform="translate(-133.3245,-230.4048)"
       inkscape:export-filename="/home/jag/Documents/gnewsense-art/gnewsense-gnome-splash-600x428.png"
       inkscape:export-xdpi="126.46"
       inkscape:export-ydpi="126.46"><flowRegion
         id="flowRegion2492"><rect
           id="rect2494"
           width="203.7825"
           height="19.270214"
           x="325.18484"
           y="383.68582" /></flowRegion><flowPara
         id="flowPara2496"
         style="font-size:16px;font-style:oblique;font-variant:normal;font-weight:normal;font-stretch:normal;text-align:start;line-height:125%;writing-mode:lr-tb;text-anchor:start;font-family:DejaVu Sans Mono">Free as in Freedom...</flowPara></flowRoot>    <flowRoot
       xml:space="preserve"
       id="flowRoot2498"
       style="font-size:12px;font-style:normal;font-variant:normal;font-weight:normal;font-stretch:normal;text-align:start;line-height:125%;writing-mode:lr-tb;text-anchor:start;font-family:Bitstream Vera Sans"
       transform="translate(-68.76925,-377.3402)"
       inkscape:export-filename="/home/jag/Documents/gnewsense-art/gnewsense-gnome-splash-600x428.png"
       inkscape:export-xdpi="126.46"
       inkscape:export-ydpi="126.46"><flowRegion
         id="flowRegion2500"><rect
           id="rect2502"
           width="68.891014"
           height="15.416171"
           x="390.70355"
           y="606.25677"
           style="font-size:12px;font-style:normal;font-variant:normal;font-weight:normal;font-stretch:normal;text-align:start;line-height:125%;writing-mode:lr-tb;text-anchor:start;font-family:Bitstream Vera Sans" /></flowRegion><flowPara
         id="flowPara2506">Version 1.0</flowPara></flowRoot>  </g>
</svg>
