<?xml version="1.0" encoding="UTF-8" standalone="no"?>
<!-- Created with Inkscape (http://www.inkscape.org/) -->
<svg
   xmlns:dc="http://purl.org/dc/elements/1.1/"
   xmlns:cc="http://web.resource.org/cc/"
   xmlns:rdf="http://www.w3.org/1999/02/22-rdf-syntax-ns#"
   xmlns:svg="http://www.w3.org/2000/svg"
   xmlns="http://www.w3.org/2000/svg"
   xmlns:sodipodi="http://sodipodi.sourceforge.net/DTD/sodipodi-0.dtd"
   xmlns:inkscape="http://www.inkscape.org/namespaces/inkscape"
   width="11.5in"
   height="4in"
   id="svg6851"
   sodipodi:version="0.32"
   inkscape:version="0.44"
   version="1.0"
   sodipodi:docbase="/home/li/Desktop"
   sodipodi:docname="gnewsenselogo.svg">
  <defs
     id="defs6853" />
  <sodipodi:namedview
     inkscape:document-units="in"
     pagecolor="#ffffff"
     bordercolor="#666666"
     borderopacity="1.0"
     inkscape:pageopacity="0.0"
     inkscape:pageshadow="2"
     inkscape:zoom="0.30699632"
     inkscape:cx="869.95426"
     inkscape:cy="113.9659"
     inkscape:current-layer="layer1"
     id="namedview6855"
     showborder="true"
     inkscape:showpageshadow="true"
     borderlayer="top"
     inkscape:window-width="914"
     inkscape:window-height="625"
     inkscape:window-x="0"
     inkscape:window-y="49" />
  <metadata
     id="metadata6857">
    <rdf:RDF>
      <cc:Work
         rdf:about="">
        <dc:format>image/svg+xml</dc:format>
        <dc:type
           rdf:resource="http://purl.org/dc/dcmitype/StillImage" />
      </cc:Work>
    </rdf:RDF>
  </metadata>
  <g
     inkscape:label="Layer 1"
     inkscape:groupmode="layer"
     id="layer1">
    <g
       id="g1938">
      <path
         style="opacity:1;fill:#000000;fill-opacity:1;fill-rule:nonzero;stroke:none;stroke-miterlimit:4"
         d="M 50.858442,115.88345 C 19.6599,155.31925 53.956609,182.65585 88.430237,178.04502 C 110.58048,175.08722 113.98095,163.49437 113.61722,154.50178 C 113.26122,145.5061 98.84368,157.86974 81.883145,152.83483 C 64.922592,147.79991 56.315886,128.32117 82.299497,108.2072 C 108.2831,88.093226 131.98754,87.752348 140.04241,87.113118 C 148.53816,86.470798 153.94504,83.307376 145.87183,80.309335 C 145.87183,80.309335 87.234295,69.905181 50.858442,115.88345 z "
         id="path1346"
         sodipodi:nodetypes="cccszccc" />
      <path
         style="opacity:1;fill:#000000;fill-opacity:1;fill-rule:nonzero;stroke:none;stroke-miterlimit:4"
         d="M 100.60556,111.60932 C 101.03434,116.18205 104.76418,122.46404 110.38537,132.22624 C 118.02862,145.49214 128.02142,168.39959 133.13012,212.34858 C 139.48994,267.04949 131.9142,294.84732 106.21941,310.42014 C 93.80374,317.94149 78.865282,322.81819 79.891724,327.49518 C 80.8653,331.93134 95.396993,332.24705 105.81265,331.56422 C 142.2579,329.18536 148.05353,299.18063 149.77485,274.12027 C 151.1885,253.53924 147.73558,223.3955 143.18781,192.46278 C 138.70026,161.93976 129.90831,127.49199 125.16965,113.10567 C 121.88621,103.14523 121.36051,100.51231 115.67618,99.616562 C 108.2811,98.457962 99.728898,102.2715 100.60556,111.60932 L 100.60556,111.60932 z "
         id="path1348"
         sodipodi:nodetypes="ccccscsscccc" />
      <path
         style="opacity:1;fill:#000000;fill-opacity:1;fill-rule:nonzero;stroke:none;stroke-miterlimit:4"
         d="M 169.40204,176.40432 L 169.40204,44.202005 L 189.49473,44.202005 C 189.49473,44.202005 255.87182,145.84241 258.15618,147.71143 L 258.14582,44.202005 L 275.3075,44.202005 L 275.3075,176.40432 L 256.89031,176.40432 C 256.89031,176.40432 194.90152,82.659017 185.93962,70.316767 L 186.56665,176.40432 L 169.40204,176.40432 z "
         id="path1350"
         sodipodi:nodetypes="ccccccccccc" />
      <path
         style="opacity:1;fill:#000000;fill-opacity:1;fill-rule:nonzero;stroke:none;stroke-miterlimit:4"
         d="M 401.23223,83.566515 C 401.23223,83.566515 418.47026,139.44364 420.19715,149.03404 L 444.38826,83.566515 L 458.58221,83.566515 L 481.47521,147.25869 C 485.02737,138.37756 502.12444,83.566515 502.12444,83.566515 L 518.80886,83.566515 L 488.88791,176.40432 L 473.54416,176.40432 L 459.3502,132.09557 C 456.0888,121.54628 454.83328,118.83994 451.28112,109.07187 C 451.28112,109.07187 445.54098,122.31281 442.27957,132.28646 L 427.31909,176.40432 L 411.97241,176.40432 L 383.96923,83.566515 L 401.23223,83.566515 z "
         id="path1354" />
      <path
         style="opacity:1;fill:#000000;fill-opacity:1;fill-rule:nonzero;stroke:none;stroke-miterlimit:4"
         d="M 534.75533,155.71894 C 543.25777,160.58763 555.46652,164.29092 568.54742,164.29092 C 587.94811,164.29092 599.2847,155.32896 599.2847,141.88831 C 599.2847,129.80955 591.43676,122.60251 571.60076,115.97741 C 547.61858,108.18389 532.79184,96.88811 532.79184,78.574236 C 532.79184,58.120011 551.76022,42.924449 580.31933,42.924449 C 595.14306,42.924449 606.26198,46.042773 612.5863,49.356071 L 607.35031,63.18369 C 602.77335,60.651851 592.96341,56.951589 579.66332,56.951589 C 559.60816,56.951589 551.97938,67.663905 551.97938,76.62585 C 551.97938,88.898085 560.91716,94.936704 581.19302,101.95179 C 606.04433,110.71875 618.46922,121.23759 618.46922,140.5249 C 618.46922,160.78413 601.90117,178.51153 567.2354,178.51153 C 553.06619,178.51153 537.58645,174.61325 529.737,169.93806 L 534.7523,155.71743 L 534.75533,155.71894 z "
         id="path1356" />
      <path
         style="opacity:1;fill:#000000;fill-opacity:1;fill-rule:nonzero;stroke:none;stroke-miterlimit:4"
         d="M 742.74178,176.40432 L 742.74178,83.026128 L 763.81979,83.026128 C 763.81979,83.026128 800.78664,149.53036 800.78664,149.53036 L 800.65123,83.026128 L 816.46782,83.026128 L 816.46782,176.40432 L 797.87881,176.40432 C 797.87881,176.40432 758.81673,107.89774 758.81673,107.89774 L 758.55542,176.40579 L 742.74031,176.40579 L 742.74178,176.40432 z "
         id="path1358"
         sodipodi:nodetypes="cccccccccccc" />
      <path
         style="opacity:1;fill:#000000;fill-opacity:1;fill-rule:nonzero;stroke:none;stroke-miterlimit:4"
         d="M 841.44894,159.33075 C 846.62813,162.3998 855.44906,165.8521 863.88966,165.8521 C 875.97347,165.8521 881.72683,159.90638 881.72683,152.04141 C 881.72683,143.987 876.93236,139.57434 864.65619,134.97077 C 847.7794,128.83416 839.91443,119.81793 839.91443,108.69302 C 839.91443,93.734003 852.18619,81.457833 871.94407,81.457833 C 881.34209,81.457833 889.59179,83.951247 894.57569,87.212655 L 890.54921,99.296459 C 886.90749,97.186309 880.19377,93.926369 871.56227,93.926369 C 861.58568,93.926369 856.21559,99.681191 856.21559,106.5858 C 856.21559,114.44931 861.58568,117.90161 873.67242,122.50518 C 889.59179,128.4509 898.0324,136.50824 898.0324,150.50835 C 898.0324,167.00335 885.17913,178.513 863.50346,178.513 C 853.33892,178.513 843.94236,175.82869 837.41954,171.99165 L 841.44747,159.33222 L 841.44894,159.33075 z "
         id="path1360" />
      <path
         sodipodi:nodetypes="csssccssssscsz"
         id="path5749"
         d="M 701.27653,135.03245 C 687.45245,136.65067 670.99874,138.09415 666.52292,138.42309 C 660.89733,138.83571 659.86145,136.01005 659.86145,134.41091 C 659.86145,132.81177 662.53317,125.70785 666.52292,125.70785 C 668.84013,125.70785 699.24861,127.42005 699.24861,127.42005 C 696.58485,109.21431 688.98714,100.09382 677.93565,99.888242 C 663.67856,99.620985 650.84878,113.65341 652.18065,132.74903 C 653.81797,156.225 667.71677,168.71703 684.59504,168.71703 C 696.67884,168.71703 711.44989,162.43063 712.57031,166.49675 C 713.69074,170.55992 697.78898,178.02107 683.02086,178.02107 C 654.63442,178.02107 634.41986,159.22943 634.41986,131.41714 C 634.41986,103.21867 654.05879,81.137712 681.10308,80.964437 C 707.68481,80.795566 724.63429,106.28396 722.33104,130.07059 C 722.01227,133.36268 715.10063,133.41423 701.27653,135.03245 z "
         style="opacity:1;fill:#000000;fill-opacity:1;fill-rule:nonzero;stroke:none;stroke-miterlimit:4" />
      <path
         sodipodi:nodetypes="csssccssssscsz"
         id="path5764"
         d="M 356.47974,135.03245 C 342.65565,136.65067 326.20195,138.09415 321.72614,138.42309 C 316.10053,138.83571 315.06468,136.01005 315.06468,134.41091 C 315.06468,132.81177 317.73638,125.70785 321.72614,125.70785 C 324.04333,125.70785 354.45182,127.42005 354.45182,127.42005 C 351.78807,109.21431 344.19035,100.09382 333.13886,99.888242 C 318.88176,99.620985 306.052,113.65341 307.38387,132.74903 C 309.02118,156.225 322.91998,168.71703 339.79824,168.71703 C 351.88205,168.71703 366.65311,162.43063 367.77352,166.49675 C 368.89394,170.55992 352.99219,178.02107 338.22408,178.02107 C 309.83763,178.02107 289.62307,159.22943 289.62307,131.41714 C 289.62307,103.21867 309.26201,81.137712 336.30629,80.964437 C 362.88802,80.795566 379.83751,106.28396 377.53425,130.07059 C 377.21548,133.36268 370.30383,133.41423 356.47974,135.03245 z "
         style="opacity:1;fill:#000000;fill-opacity:1;fill-rule:nonzero;stroke:none;stroke-miterlimit:4" />
      <path
         sodipodi:nodetypes="csssccssssscsz"
         id="path5766"
         d="M 977.34352,135.39629 C 963.51945,137.01452 947.06578,138.458 942.5899,138.78692 C 936.96434,139.19956 935.92844,136.3739 935.92844,134.77477 C 935.92844,133.17563 938.60012,126.07169 942.5899,126.07169 C 944.90714,126.07169 975.31559,127.7839 975.31559,127.7839 C 972.65181,109.57816 965.05412,100.45767 954.00266,100.25209 C 939.74551,99.984829 926.91575,114.01726 928.24764,133.11286 C 929.88494,156.58884 943.78374,169.08088 960.66202,169.08088 C 972.74587,169.08088 987.51692,162.79447 988.63727,166.86059 C 989.75772,170.92377 973.85594,178.38492 959.08784,178.38492 C 930.7014,178.38492 910.48683,159.59327 910.48683,131.78099 C 910.48683,103.58251 930.12581,81.501557 957.17007,81.328281 C 983.75183,81.15941 1000.7013,106.64781 998.39807,130.43443 C 998.07924,133.72653 991.16758,133.77807 977.34352,135.39629 z "
         style="opacity:1;fill:#000000;fill-opacity:1;fill-rule:nonzero;stroke:none;stroke-miterlimit:4" />
    </g>
  </g>
</svg>
